<svg id="illust" xmlns="http://www.w3.org/2000/svg" width="511px" height="700px" viewBox="0 0 511 700">
<!-- Generator: img2vec by Yuichiro Nakada --><g id="f1f0ef">
<path fill="#f1f0ef" fill-rule="evenodd" d="M404.00,5.89 C404.00,6.59 403.46,6.81 402.75,6.40 C402.06,6.00 401.84,6.05 402.25,6.51 C402.67,6.96 402.23,8.27 401.29,9.42 C400.35,10.56 400.89,10.28 402.49,8.78 C404.09,7.28 405.08,5.75 404.70,5.36 C404.31,4.98 404.00,5.22 404.00,5.89 ZM441.50,10.00 C442.50,11.10 443.53,12.00 443.81,12.00 C444.08,12.00 443.50,11.10 442.50,10.00 C441.50,8.90 440.47,8.00 440.19,8.00 C439.92,8.00 440.50,8.90 441.50,10.00 ZM397.46,14.07 C397.10,14.65 397.01,15.35 397.28,15.61 C397.54,15.87 398.02,15.39 398.35,14.54 C399.02,12.78 398.44,12.47 397.46,14.07 ZM443.61,15.18 C443.90,15.65 444.56,15.77 445.07,15.46 C446.38,14.65 446.23,14.33 444.54,14.33 C443.74,14.33 443.32,14.72 443.61,15.18 ZM449.56,15.29 C449.94,16.28 450.50,16.83 450.81,16.53 C451.11,16.22 450.81,15.41 450.12,14.73 C449.14,13.75 449.02,13.87 449.56,15.29 ZM496.00,20.39 C496.00,20.61 496.70,21.05 497.55,21.38 C498.44,21.72 498.84,21.56 498.49,20.99 C497.91,20.04 496.00,19.58 496.00,20.39 ZM500.61,23.18 C500.90,23.65 501.56,23.77 502.07,23.46 C503.38,22.65 503.23,22.33 501.54,22.33 C500.74,22.33 500.32,22.72 500.61,23.18 ZM487.51,25.99 C487.16,26.56 487.56,26.72 488.45,26.38 C490.18,25.72 490.50,25.00 489.06,25.00 C488.54,25.00 487.84,25.44 487.51,25.99 ZM481.00,28.00 C480.10,28.58 479.98,28.98 480.69,28.98 C481.35,28.99 482.16,28.55 482.50,28.00 C483.27,26.76 482.92,26.76 481.00,28.00 ZM509.65,29.47 C509.34,30.28 509.42,31.14 509.84,31.40 C510.25,31.65 510.65,30.99 510.73,29.93 C510.90,27.63 510.43,27.43 509.65,29.47 ZM473.07,33.41 C472.17,34.50 472.20,34.99 473.20,35.57 C473.92,35.98 474.17,35.95 473.76,35.50 C473.35,35.05 473.52,34.08 474.13,33.34 C474.74,32.60 475.02,32.00 474.74,32.00 C474.47,32.00 473.72,32.63 473.07,33.41 ZM507.30,44.00 C507.30,47.02 507.49,48.26 507.72,46.75 C507.95,45.24 507.95,42.76 507.72,41.25 C507.49,39.74 507.30,40.98 507.30,44.00 ZM200.33,42.46 C200.33,43.26 200.72,43.68 201.18,43.39 C201.65,43.10 201.77,42.44 201.46,41.93 C200.65,40.62 200.33,40.77 200.33,42.46 ZM463.87,42.75 C462.63,44.34 462.66,44.37 464.25,43.13 C465.92,41.82 466.45,41.00 465.62,41.00 C465.41,41.00 464.63,41.79 463.87,42.75 ZM179.26,45.72 C180.78,45.95 183.03,45.94 184.26,45.70 C185.49,45.47 184.25,45.28 181.50,45.29 C178.75,45.29 177.74,45.49 179.26,45.72 ZM366.25,46.69 C367.21,46.94 368.79,46.94 369.75,46.69 C370.71,46.44 369.93,46.23 368.00,46.23 C366.07,46.23 365.29,46.44 366.25,46.69 ZM459.10,49.30 C457.84,51.40 457.86,51.42 459.58,49.77 C460.57,48.82 461.17,47.83 460.90,47.57 C460.64,47.31 459.83,48.08 459.10,49.30 ZM243.75,50.71 C244.99,50.94 247.01,50.94 248.25,50.71 C249.49,50.47 248.47,50.27 246.00,50.27 C243.53,50.27 242.51,50.47 243.75,50.71 ZM366.81,50.68 C367.53,50.97 368.40,50.94 368.73,50.60 C369.06,50.27 368.47,50.04 367.42,50.08 C366.25,50.13 366.01,50.36 366.81,50.68 ZM384.73,53.12 C385.41,53.81 386.22,54.11 386.53,53.81 C386.83,53.50 386.28,52.94 385.29,52.56 C383.87,52.02 383.75,52.14 384.73,53.12 ZM388.50,57.00 C389.50,58.10 390.53,59.00 390.81,59.00 C391.08,59.00 390.50,58.10 389.50,57.00 C388.50,55.90 387.47,55.00 387.19,55.00 C386.92,55.00 387.50,55.90 388.50,57.00 ZM184.27,56.69 C185.24,56.95 186.59,56.93 187.27,56.66 C187.95,56.38 187.15,56.17 185.50,56.19 C183.85,56.22 183.30,56.44 184.27,56.69 ZM263.00,56.24 C263.00,56.45 264.35,57.92 266.00,59.50 C267.65,61.08 269.00,61.87 269.00,61.26 C269.00,60.64 267.65,59.17 266.00,58.00 C264.35,56.83 263.00,56.04 263.00,56.24 ZM382.35,57.83 C383.26,58.84 383.78,59.89 383.50,60.16 C383.23,60.44 383.68,60.67 384.52,60.67 C385.68,60.67 385.53,60.12 383.84,58.33 C381.27,55.60 379.91,55.14 382.35,57.83 ZM420.16,58.00 C420.16,59.38 420.38,59.94 420.66,59.25 C420.94,58.56 420.94,57.44 420.66,56.75 C420.38,56.06 420.16,56.62 420.16,58.00 ZM357.16,59.00 C357.16,60.38 357.38,60.94 357.66,60.25 C357.94,59.56 357.94,58.44 357.66,57.75 C357.38,57.06 357.16,57.62 357.16,59.00 ZM420.16,64.00 C420.16,65.38 420.38,65.94 420.66,65.25 C420.94,64.56 420.94,63.44 420.66,62.75 C420.38,62.06 420.16,62.62 420.16,64.00 ZM387.50,65.00 C387.84,65.55 388.32,66.00 388.56,66.00 C388.80,66.00 389.00,65.55 389.00,65.00 C389.00,64.45 388.52,64.00 387.94,64.00 C387.36,64.00 387.16,64.45 387.50,65.00 ZM359.00,65.38 C359.00,65.59 359.79,66.37 360.75,67.13 C362.34,68.37 362.37,68.34 361.13,66.75 C359.82,65.08 359.00,64.55 359.00,65.38 ZM181.76,66.71 C183.01,66.95 184.81,66.94 185.76,66.69 C186.72,66.44 185.70,66.24 183.50,66.25 C181.30,66.26 180.52,66.47 181.76,66.71 ZM356.55,67.27 C356.82,67.97 358.04,69.15 359.27,69.90 C361.40,71.20 361.39,71.14 359.08,68.63 C356.37,65.69 355.83,65.41 356.55,67.27 ZM173.87,71.66 C172.63,73.17 172.71,73.22 174.75,72.13 C177.08,70.89 177.65,70.00 176.12,70.00 C175.64,70.00 174.63,70.75 173.87,71.66 ZM158.95,83.75 L155.50,87.50 L159.25,84.05 C161.31,82.16 163.00,80.47 163.00,80.30 C163.00,79.54 162.15,80.26 158.95,83.75 ZM367.60,85.15 C367.89,85.64 368.61,85.74 369.18,85.39 C369.75,85.03 370.66,85.36 371.19,86.12 C371.98,87.25 372.08,87.23 371.74,86.00 C371.52,85.17 370.37,84.45 369.19,84.39 C368.02,84.33 367.30,84.67 367.60,85.15 ZM495.16,86.00 C495.16,87.38 495.38,87.94 495.66,87.25 C495.94,86.56 495.94,85.44 495.66,84.75 C495.38,84.06 495.16,84.62 495.16,86.00 ZM498.19,87.50 C498.22,89.15 498.44,89.70 498.69,88.73 C498.95,87.76 498.93,86.41 498.66,85.73 C498.38,85.05 498.17,85.85 498.19,87.50 ZM350.16,88.00 C350.16,89.38 350.38,89.94 350.66,89.25 C350.94,88.56 350.94,87.44 350.66,86.75 C350.38,86.06 350.16,86.62 350.16,88.00 ZM361.08,88.58 C361.13,89.75 361.36,89.99 361.68,89.19 C361.97,88.47 361.94,87.60 361.60,87.27 C361.27,86.94 361.04,87.53 361.08,88.58 ZM354.00,90.94 C354.00,91.46 354.44,92.16 354.99,92.49 C355.56,92.84 355.72,92.44 355.38,91.55 C354.72,89.82 354.00,89.50 354.00,90.94 ZM272.46,92.07 C272.10,92.65 272.01,93.35 272.28,93.61 C272.54,93.87 273.02,93.39 273.35,92.54 C274.02,90.78 273.44,90.47 272.46,92.07 ZM366.87,95.75 C365.63,97.34 365.66,97.37 367.25,96.13 C368.92,94.82 369.45,94.00 368.62,94.00 C368.41,94.00 367.63,94.79 366.87,95.75 ZM417.00,96.00 C417.00,96.55 417.48,97.00 418.06,97.00 C418.64,97.00 418.84,96.55 418.50,96.00 C418.16,95.45 417.68,95.00 417.44,95.00 C417.20,95.00 417.00,95.45 417.00,96.00 ZM429.51,118.99 C429.16,119.56 429.56,119.72 430.45,119.38 C432.18,118.72 432.50,118.00 431.06,118.00 C430.54,118.00 429.84,118.44 429.51,118.99 ZM495.87,121.75 C494.63,123.34 494.66,123.37 496.25,122.13 C497.21,121.37 498.00,120.59 498.00,120.38 C498.00,119.55 497.18,120.08 495.87,121.75 ZM497.87,124.75 C496.60,126.37 496.65,126.39 498.50,125.03 C499.60,124.23 500.69,123.44 500.92,123.28 C501.15,123.13 500.86,123.00 500.29,123.00 C499.71,123.00 498.63,123.79 497.87,124.75 ZM289.73,140.12 C290.41,140.81 291.22,141.11 291.53,140.81 C291.83,140.50 291.28,139.94 290.29,139.56 C288.87,139.02 288.75,139.14 289.73,140.12 ZM417.75,147.66 C418.44,147.94 419.56,147.94 420.25,147.66 C420.94,147.38 420.38,147.16 419.00,147.16 C417.62,147.16 417.06,147.38 417.75,147.66 ZM291.19,150.50 C291.22,152.15 291.44,152.70 291.69,151.73 C291.95,150.76 291.93,149.41 291.66,148.73 C291.38,148.05 291.17,148.85 291.19,150.50 ZM132.08,164.58 C132.13,165.75 132.36,165.99 132.68,165.19 C132.97,164.47 132.94,163.60 132.60,163.27 C132.27,162.94 132.04,163.53 132.08,164.58 ZM281.61,198.18 C281.90,198.65 282.56,198.77 283.07,198.46 C284.38,197.65 284.23,197.33 282.54,197.33 C281.74,197.33 281.32,197.72 281.61,198.18 ZM284.73,202.12 C285.41,202.81 286.22,203.11 286.53,202.81 C286.83,202.50 286.28,201.94 285.29,201.56 C283.87,201.02 283.75,201.14 284.73,202.12 ZM100.25,259.50 C100.26,261.70 100.47,262.48 100.71,261.24 C100.95,259.99 100.94,258.19 100.69,257.24 C100.44,256.28 100.24,257.30 100.25,259.50 ZM108.00,280.50 C109.29,281.88 110.57,283.00 110.85,283.00 C111.12,283.00 110.29,281.88 109.00,280.50 C107.71,279.12 106.43,278.00 106.15,278.00 C105.88,278.00 106.71,279.12 108.00,280.50 ZM310.46,284.07 C310.10,284.65 310.01,285.35 310.28,285.61 C310.54,285.87 311.02,285.39 311.35,284.54 C312.02,282.78 311.44,282.47 310.46,284.07 ZM272.00,286.33 C272.00,287.07 272.67,287.67 273.48,287.67 C274.61,287.67 274.70,287.34 273.86,286.33 C273.25,285.60 272.59,285.00 272.38,285.00 C272.17,285.00 272.00,285.60 272.00,286.33 ZM270.62,291.54 C269.66,294.05 269.94,294.70 271.12,292.67 C271.71,291.67 271.97,290.64 271.72,290.38 C271.46,290.12 270.97,290.64 270.62,291.54 ZM321.54,291.93 C321.23,292.44 321.35,293.10 321.82,293.39 C322.28,293.68 322.67,293.26 322.67,292.46 C322.67,290.77 322.35,290.62 321.54,291.93 ZM144.33,293.46 C144.33,294.26 144.71,294.68 145.17,294.40 C145.62,294.11 146.00,293.46 146.00,292.94 C146.00,292.42 145.62,292.00 145.17,292.00 C144.71,292.00 144.33,292.66 144.33,293.46 ZM268.56,296.71 C268.02,298.13 268.14,298.25 269.12,297.27 C269.81,296.59 270.11,295.78 269.81,295.47 C269.50,295.17 268.94,295.72 268.56,296.71 ZM182.27,299.69 C183.24,299.95 184.59,299.93 185.27,299.66 C185.95,299.38 185.15,299.17 183.50,299.19 C181.85,299.22 181.30,299.44 182.27,299.69 ZM266.08,300.85 C264.45,303.90 264.79,304.75 266.60,302.16 C267.48,300.90 267.97,299.64 267.68,299.35 C267.40,299.06 266.68,299.74 266.08,300.85 ZM139.03,300.96 C138.22,301.47 137.82,302.15 138.14,302.47 C138.45,302.79 139.28,302.36 139.98,301.52 C141.42,299.79 141.15,299.62 139.03,300.96 ZM122.63,304.07 C121.19,305.21 120.01,306.67 120.03,307.32 C120.05,307.97 120.54,307.67 121.13,306.66 C121.72,305.65 123.62,304.20 125.35,303.45 C127.08,302.69 127.77,302.06 126.88,302.04 C126.00,302.02 124.08,302.93 122.63,304.07 ZM285.50,305.00 C286.50,306.10 287.53,307.00 287.81,307.00 C288.08,307.00 287.50,306.10 286.50,305.00 C285.50,303.90 284.47,303.00 284.19,303.00 C283.92,303.00 284.50,303.90 285.50,305.00 ZM259.72,309.97 C257.46,313.00 254.34,315.72 251.75,316.93 C249.41,318.03 247.99,318.94 248.60,318.96 C252.13,319.08 259.87,312.44 263.40,306.25 C264.97,303.51 263.23,305.26 259.72,309.97 ZM186.08,307.58 C186.13,308.75 186.36,308.99 186.68,308.19 C186.97,307.47 186.94,306.60 186.60,306.27 C186.27,305.94 186.04,306.53 186.08,307.58 ZM169.50,308.00 C169.16,308.55 169.61,309.00 170.50,309.00 C171.39,309.00 171.84,308.55 171.50,308.00 C171.16,307.45 170.71,307.00 170.50,307.00 C170.29,307.00 169.84,307.45 169.50,308.00 ZM343.55,307.91 C343.23,308.44 343.39,309.13 343.91,309.45 C344.44,309.77 345.13,309.61 345.45,309.09 C345.77,308.56 345.61,307.87 345.09,307.55 C344.56,307.23 343.87,307.39 343.55,307.91 ZM118.15,310.75 C116.64,313.65 111.92,327.25 112.30,327.63 C112.49,327.83 114.24,323.71 116.17,318.49 C119.52,309.48 120.18,306.87 118.15,310.75 ZM181.50,313.29 C184.80,315.07 187.65,316.18 187.84,315.76 C188.02,315.33 188.58,315.24 189.07,315.55 C189.57,315.85 189.69,315.37 189.35,314.47 C188.91,313.32 188.51,313.18 188.00,314.00 C187.48,314.84 185.83,314.44 182.17,312.59 C174.87,308.89 174.35,309.44 181.50,313.29 ZM390.43,315.00 C390.43,316.30 390.77,316.63 391.41,315.99 C392.06,315.34 392.06,314.66 391.41,314.01 C390.77,313.37 390.43,313.70 390.43,315.00 ZM352.73,316.12 C353.41,316.81 354.22,317.11 354.53,316.81 C354.83,316.50 354.28,315.94 353.29,315.56 C351.87,315.02 351.75,315.14 352.73,316.12 ZM393.81,317.68 C394.53,317.97 395.40,317.94 395.73,317.60 C396.06,317.27 395.47,317.04 394.42,317.08 C393.25,317.13 393.01,317.36 393.81,317.68 ZM244.81,319.68 C245.53,319.97 246.40,319.94 246.73,319.60 C247.06,319.27 246.47,319.04 245.42,319.08 C244.25,319.13 244.01,319.36 244.81,319.68 ZM241.75,320.66 C242.44,320.94 243.00,321.77 243.00,322.50 C243.00,323.23 242.44,324.06 241.75,324.34 C240.81,324.72 240.80,324.86 241.71,324.92 C242.38,324.96 243.39,324.14 243.95,323.10 C244.73,321.64 244.60,321.06 243.40,320.60 C242.54,320.27 241.54,320.04 241.17,320.08 C240.80,320.12 241.06,320.38 241.75,320.66 ZM391.00,324.00 C390.10,324.58 389.98,324.98 390.69,324.98 C391.35,324.99 392.16,324.55 392.50,324.00 C393.27,322.76 392.92,322.76 391.00,324.00 ZM395.73,325.12 C396.41,325.81 397.22,326.11 397.53,325.81 C397.83,325.50 397.28,324.94 396.29,324.56 C394.87,324.02 394.75,324.14 395.73,325.12 ZM248.08,326.36 C248.31,326.57 249.62,327.26 251.00,327.92 C253.36,329.04 253.39,329.02 251.56,327.56 C249.97,326.28 246.71,325.16 248.08,326.36 ZM255.53,330.32 C259.96,333.28 265.00,336.13 265.00,335.67 C265.00,335.06 255.24,329.00 254.26,329.00 C253.87,329.00 254.44,329.59 255.53,330.32 ZM105.75,331.66 C106.44,331.94 107.56,331.94 108.25,331.66 C108.94,331.38 108.38,331.16 107.00,331.16 C105.62,331.16 105.06,331.38 105.75,331.66 ZM98.50,333.00 C97.24,333.54 97.05,333.86 98.00,333.86 C98.83,333.86 100.40,333.47 101.50,333.00 C102.76,332.46 102.95,332.14 102.00,332.14 C101.17,332.14 99.60,332.53 98.50,333.00 ZM92.40,335.41 C92.10,336.18 92.80,338.54 93.96,340.66 C95.35,343.20 95.85,343.66 95.42,342.00 C95.07,340.62 94.38,339.07 93.89,338.55 C92.45,337.02 92.86,335.18 94.75,334.69 C96.39,334.26 96.39,334.22 94.72,334.12 C93.74,334.05 92.69,334.63 92.40,335.41 ZM267.86,337.94 C269.16,339.07 270.70,340.00 271.28,340.00 C272.51,340.00 272.45,339.95 268.50,337.64 L265.50,335.88 L267.86,337.94 ZM371.16,342.00 C371.16,343.38 371.38,343.94 371.66,343.25 C371.94,342.56 371.94,341.44 371.66,340.75 C371.38,340.06 371.16,340.62 371.16,342.00 ZM273.00,341.46 C273.00,341.72 274.01,342.47 275.25,343.13 C277.29,344.22 277.37,344.17 276.13,342.66 C274.85,341.11 273.00,340.41 273.00,341.46 ZM361.40,343.25 C361.00,343.94 361.05,344.17 361.50,343.76 C361.95,343.35 363.03,343.58 363.91,344.26 C365.32,345.36 365.34,345.30 364.13,343.75 C362.49,341.66 362.33,341.63 361.40,343.25 ZM278.00,344.40 C278.00,344.63 280.25,346.43 283.00,348.40 C285.75,350.38 287.99,351.66 287.98,351.25 C287.96,350.48 278.00,343.65 278.00,344.40 ZM95.50,346.00 C95.84,346.55 96.32,347.00 96.56,347.00 C96.80,347.00 97.00,346.55 97.00,346.00 C97.00,345.45 96.52,345.00 95.94,345.00 C95.36,345.00 95.16,345.45 95.50,346.00 ZM365.87,347.34 C366.48,348.08 366.65,349.05 366.24,349.50 C365.83,349.95 366.08,349.98 366.80,349.57 C367.80,348.99 367.83,348.50 366.93,347.41 C366.28,346.63 365.53,346.00 365.26,346.00 C364.98,346.00 365.26,346.60 365.87,347.34 ZM369.60,347.83 C369.32,348.29 369.72,348.67 370.50,348.67 C371.28,348.67 371.68,348.29 371.40,347.83 C371.11,347.38 370.71,347.00 370.50,347.00 C370.29,347.00 369.89,347.38 369.60,347.83 ZM290.50,353.95 C292.78,356.53 299.90,360.43 300.76,359.57 C301.08,359.26 300.86,359.00 300.28,359.00 C299.70,359.00 296.81,357.36 293.86,355.34 C290.24,352.88 289.15,352.42 290.50,353.95 ZM79.75,354.57 C76.01,356.60 76.24,357.44 80.00,355.50 C81.65,354.65 83.00,353.74 83.00,353.47 C83.00,352.83 82.89,352.87 79.75,354.57 ZM304.55,361.87 C306.00,363.19 315.00,368.25 315.00,367.74 C315.00,367.19 305.11,361.00 304.23,361.00 C303.89,361.00 304.03,361.39 304.55,361.87 ZM59.36,365.77 C59.72,366.36 59.23,367.06 58.26,367.31 C56.69,367.72 56.68,367.78 58.19,367.88 C60.31,368.03 61.43,366.38 59.86,365.41 C59.16,364.98 58.96,365.12 59.36,365.77 ZM316.39,368.83 C316.70,369.33 319.56,371.30 322.73,373.20 C325.90,375.10 331.09,378.33 334.25,380.36 C337.41,382.40 340.00,383.84 340.00,383.56 C340.00,383.05 333.34,378.66 322.17,371.80 C318.68,369.67 316.09,368.33 316.39,368.83 ZM53.87,370.75 C52.63,372.34 52.66,372.37 54.25,371.13 C55.92,369.82 56.45,369.00 55.62,369.00 C55.41,369.00 54.63,369.79 53.87,370.75 ZM44.92,376.66 L42.50,379.32 L45.75,376.97 C49.13,374.53 49.56,374.00 48.17,374.00 C47.72,374.00 46.26,375.20 44.92,376.66 ZM36.00,384.10 L30.50,389.18 L36.25,384.47 C41.30,380.33 42.67,378.97 41.75,379.01 C41.61,379.02 39.02,381.31 36.00,384.10 ZM341.24,384.58 C341.57,385.11 343.98,387.08 346.59,388.96 C349.21,390.84 351.08,391.94 350.76,391.42 C350.43,390.89 348.02,388.92 345.41,387.04 C342.79,385.16 340.92,384.06 341.24,384.58 ZM27.15,391.25 C26.46,391.94 25.47,392.50 24.95,392.50 C24.43,392.50 23.97,392.95 23.94,393.50 C23.91,394.05 22.93,395.51 21.77,396.75 C17.85,400.91 20.54,399.05 25.00,394.50 C27.43,392.02 29.19,390.00 28.91,390.00 C28.63,390.00 27.84,390.56 27.15,391.25 ZM354.62,395.18 C359.05,398.53 359.91,398.79 356.54,395.78 C354.87,394.28 353.10,393.04 352.62,393.03 C352.13,393.01 353.03,393.98 354.62,395.18 ZM16.60,399.83 C16.32,400.29 16.72,400.67 17.50,400.67 C18.28,400.67 18.68,400.29 18.40,399.83 C18.11,399.38 17.71,399.00 17.50,399.00 C17.29,399.00 16.89,399.38 16.60,399.83 ZM365.61,405.00 C373.58,413.57 377.30,419.63 376.56,422.81 C376.10,424.82 376.20,425.12 376.95,424.00 C377.51,423.18 377.98,421.91 377.98,421.20 C378.01,419.01 370.48,408.77 365.34,404.00 L360.50,399.51 L365.61,405.00 ZM13.36,406.75 C8.29,413.13 7.68,414.00 8.22,414.00 C8.47,414.00 10.78,411.30 13.34,408.00 C15.90,404.70 17.80,402.00 17.57,402.00 C17.33,402.00 15.44,404.14 13.36,406.75 ZM5.36,418.49 C5.05,419.32 4.48,419.80 4.11,419.57 C3.73,419.34 3.43,420.01 3.43,421.07 C3.43,423.65 3.68,423.52 5.50,420.00 C6.35,418.35 6.80,417.00 6.49,417.00 C6.19,417.00 5.68,417.67 5.36,418.49 ZM375.16,428.00 C375.16,429.38 375.38,429.94 375.66,429.25 C375.94,428.56 375.94,427.44 375.66,426.75 C375.38,426.06 375.16,426.62 375.16,428.00 ZM0.25,432.50 C0.26,434.70 0.47,435.48 0.71,434.24 C0.95,432.99 0.94,431.19 0.69,430.24 C0.44,429.28 0.24,430.30 0.25,432.50 ZM376.19,433.50 C376.22,435.15 376.44,435.70 376.69,434.73 C376.95,433.76 376.93,432.41 376.66,431.73 C376.38,431.05 376.17,431.85 376.19,433.50 ZM372.46,443.67 C370.79,447.07 369.78,449.63 370.23,449.36 C371.37,448.66 376.18,438.99 375.81,438.16 C375.64,437.78 374.13,440.26 372.46,443.67 ZM1.08,441.58 C1.13,442.75 1.36,442.99 1.68,442.19 C1.97,441.47 1.94,440.60 1.60,440.27 C1.27,439.94 1.04,440.53 1.08,441.58 ZM2.08,448.58 C2.13,449.75 2.36,449.99 2.68,449.19 C2.97,448.47 2.94,447.60 2.60,447.27 C2.27,446.94 2.04,447.53 2.08,448.58 ZM369.50,451.68 C370.05,452.19 373.88,455.72 378.00,459.53 L385.50,466.45 L379.72,460.42 C376.55,457.10 374.18,454.08 374.47,453.69 C374.76,453.31 374.70,453.23 374.33,453.50 C373.96,453.78 372.50,453.27 371.08,452.37 C369.66,451.48 368.95,451.16 369.50,451.68 ZM386.50,469.00 C387.50,470.10 388.53,471.00 388.81,471.00 C389.08,471.00 388.50,470.10 387.50,469.00 C386.50,467.90 385.47,467.00 385.19,467.00 C384.92,467.00 385.50,467.90 386.50,469.00 ZM0.16,470.00 C0.16,471.38 0.38,471.94 0.66,471.25 C0.94,470.56 0.94,469.44 0.66,468.75 C0.38,468.06 0.16,468.62 0.16,470.00 ZM390.09,474.17 C390.63,475.18 391.18,476.00 391.32,476.00 C391.46,476.00 391.57,475.18 391.57,474.17 C391.57,473.16 391.02,472.33 390.34,472.33 C389.46,472.33 389.38,472.85 390.09,474.17 ZM0.19,479.50 C0.22,481.15 0.44,481.70 0.69,480.73 C0.95,479.76 0.93,478.41 0.66,477.73 C0.38,477.05 0.17,477.85 0.19,479.50 ZM392.88,481.78 C392.55,483.77 392.70,484.70 393.25,484.15 C393.76,483.64 394.00,482.17 393.80,480.87 C393.48,478.86 393.34,479.00 392.88,481.78 ZM390.03,487.47 C389.36,488.27 388.97,489.38 389.16,489.93 C389.34,490.48 390.02,489.82 390.66,488.47 C391.97,485.65 391.78,485.35 390.03,487.47 ZM2.03,488.50 C2.03,489.05 2.47,490.18 3.00,491.00 C3.53,491.82 3.97,492.05 3.97,491.50 C3.97,490.95 3.53,489.82 3.00,489.00 C2.47,488.18 2.03,487.95 2.03,488.50 ZM4.33,494.46 C4.33,495.26 4.72,495.68 5.18,495.39 C5.65,495.10 5.77,494.44 5.46,493.93 C4.65,492.62 4.33,492.77 4.33,494.46 ZM388.08,495.58 C388.13,496.75 388.36,496.99 388.68,496.19 C388.97,495.47 388.94,494.60 388.60,494.27 C388.27,493.94 388.04,494.53 388.08,495.58 ZM10.50,502.00 C11.50,503.10 12.53,504.00 12.81,504.00 C13.08,504.00 12.50,503.10 11.50,502.00 C10.50,500.90 9.47,500.00 9.19,500.00 C8.92,500.00 9.50,500.90 10.50,502.00 ZM384.70,503.51 C383.78,505.43 383.24,507.00 383.49,507.00 C384.17,507.00 387.21,500.88 386.75,500.42 C386.54,500.20 385.61,501.59 384.70,503.51 ZM14.00,504.76 C14.00,505.18 15.01,506.14 16.25,506.90 C18.49,508.28 18.49,508.28 16.60,506.14 C14.56,503.85 14.00,503.55 14.00,504.76 ZM27.33,514.46 C27.33,515.26 27.72,515.68 28.18,515.39 C28.65,515.10 28.77,514.44 28.46,513.93 C27.65,512.62 27.33,512.77 27.33,514.46 ZM373.41,521.92 L370.83,525.50 L373.58,522.50 C375.10,520.85 376.67,519.50 377.08,519.50 C377.50,519.50 378.10,519.24 378.42,518.92 C378.74,518.60 378.32,518.33 377.49,518.33 C376.66,518.33 374.82,519.95 373.41,521.92 ZM38.08,522.58 C38.13,523.75 38.36,523.99 38.68,523.19 C38.97,522.47 38.94,521.60 38.60,521.27 C38.27,520.94 38.04,521.53 38.08,522.58 ZM368.00,527.00 C367.41,528.10 367.15,529.00 367.43,529.00 C367.70,529.00 368.41,528.10 369.00,527.00 C369.59,525.90 369.85,525.00 369.57,525.00 C369.30,525.00 368.59,525.90 368.00,527.00 ZM38.16,531.00 C38.16,532.38 38.38,532.94 38.66,532.25 C38.94,531.56 38.94,530.44 38.66,529.75 C38.38,529.06 38.16,529.62 38.16,531.00 ZM361.45,534.15 C359.12,536.60 358.55,537.55 360.06,536.46 C362.37,534.79 366.59,530.00 365.75,530.00 C365.56,530.00 363.63,531.87 361.45,534.15 ZM354.87,539.75 C353.63,541.34 353.66,541.37 355.25,540.13 C356.92,538.82 357.45,538.00 356.62,538.00 C356.41,538.00 355.63,538.79 354.87,539.75 ZM45.00,547.38 C45.00,547.59 45.79,548.37 46.75,549.13 C48.34,550.37 48.37,550.34 47.13,548.75 C45.82,547.08 45.00,546.55 45.00,547.38 ZM341.00,548.00 C340.10,548.58 339.98,548.98 340.69,548.98 C341.35,548.99 342.16,548.55 342.50,548.00 C343.27,546.76 342.92,546.76 341.00,548.00 ZM337.00,550.00 C336.10,550.58 335.98,550.98 336.69,550.98 C337.35,550.99 338.16,550.55 338.50,550.00 C339.27,548.76 338.92,548.76 337.00,550.00 ZM53.50,555.84 C54.59,557.13 56.38,558.65 57.49,559.22 C59.61,560.30 59.30,559.97 54.51,555.99 C51.62,553.59 51.58,553.58 53.50,555.84 ZM61.23,561.58 C62.18,562.57 63.17,563.17 63.43,562.90 C63.69,562.64 62.92,561.83 61.70,561.10 C59.60,559.84 59.58,559.86 61.23,561.58 ZM66.23,564.33 C67.19,565.08 67.64,566.06 67.23,566.51 C66.83,566.96 67.08,566.98 67.79,566.57 C68.51,566.16 69.74,566.37 70.54,567.04 C71.34,567.70 72.00,567.82 72.00,567.31 C72.00,566.79 70.31,565.60 68.25,564.66 C65.95,563.62 65.17,563.49 66.23,564.33 ZM76.00,569.00 C76.83,569.53 77.95,569.97 78.50,569.97 C79.05,569.97 78.83,569.53 78.00,569.00 C77.17,568.47 76.05,568.03 75.50,568.03 C74.95,568.03 75.17,568.47 76.00,569.00 ZM277.00,572.39 C277.00,572.61 277.70,573.05 278.55,573.38 C279.44,573.72 279.84,573.56 279.49,572.99 C278.91,572.04 277.00,571.58 277.00,572.39 ZM91.81,574.68 C92.53,574.97 93.40,574.94 93.73,574.60 C94.06,574.27 93.47,574.04 92.42,574.08 C91.25,574.13 91.01,574.36 91.81,574.68 ZM109.81,579.68 C110.53,579.97 111.40,579.94 111.73,579.60 C112.06,579.27 111.47,579.04 110.42,579.08 C109.25,579.13 109.01,579.36 109.81,579.68 ZM114.81,580.68 C115.53,580.97 116.40,580.94 116.73,580.60 C117.06,580.27 116.47,580.04 115.42,580.08 C114.25,580.13 114.01,580.36 114.81,580.68 ZM119.81,581.68 C120.53,581.97 121.40,581.94 121.73,581.60 C122.06,581.27 121.47,581.04 120.42,581.08 C119.25,581.13 119.01,581.36 119.81,581.68 ZM124.75,582.66 C125.44,582.94 126.56,582.94 127.25,582.66 C127.94,582.38 127.38,582.16 126.00,582.16 C124.62,582.16 124.06,582.38 124.75,582.66 ZM131.81,583.68 C132.53,583.97 133.40,583.94 133.73,583.60 C134.06,583.27 133.47,583.04 132.42,583.08 C131.25,583.13 131.01,583.36 131.81,583.68 ZM139.27,584.69 C140.24,584.95 141.59,584.93 142.27,584.66 C142.95,584.38 142.15,584.17 140.50,584.19 C138.85,584.22 138.30,584.44 139.27,584.69 ZM148.27,585.69 C149.24,585.95 150.59,585.93 151.27,585.66 C151.95,585.38 151.15,585.17 149.50,585.19 C147.85,585.22 147.30,585.44 148.27,585.69 ZM221.75,585.66 C222.44,585.94 223.56,585.94 224.25,585.66 C224.94,585.38 224.38,585.16 223.00,585.16 C221.62,585.16 221.06,585.38 221.75,585.66 ZM158.00,586.39 C158.00,586.61 158.68,587.05 159.50,587.36 C160.32,587.68 161.00,587.50 161.00,586.97 C161.00,586.44 160.32,586.00 159.50,586.00 C158.68,586.00 158.00,586.18 158.00,586.39 ZM214.27,586.69 C215.24,586.95 216.59,586.93 217.27,586.66 C217.95,586.38 217.15,586.17 215.50,586.19 C213.85,586.22 213.30,586.44 214.27,586.69 ZM205.27,587.69 C206.24,587.95 207.59,587.93 208.27,587.66 C208.95,587.38 208.15,587.17 206.50,587.19 C204.85,587.22 204.30,587.44 205.27,587.69 ZM199.16,593.00 C199.16,594.38 199.38,594.94 199.66,594.25 C199.94,593.56 199.94,592.44 199.66,591.75 C199.38,591.06 199.16,591.62 199.16,593.00 ZM201.08,619.58 C201.13,620.75 201.36,620.99 201.68,620.19 C201.97,619.47 201.94,618.60 201.60,618.27 C201.27,617.94 201.04,618.53 201.08,619.58 ZM250.00,624.94 C250.00,625.46 250.44,626.16 250.99,626.49 C251.56,626.84 251.72,626.44 251.38,625.55 C250.72,623.82 250.00,623.50 250.00,624.94 ZM202.08,632.58 C202.13,633.75 202.36,633.99 202.68,633.19 C202.97,632.47 202.94,631.60 202.60,631.27 C202.27,630.94 202.04,631.53 202.08,632.58 ZM278.00,638.71 C278.00,639.29 278.79,640.37 279.75,641.13 C281.37,642.40 281.39,642.35 280.03,640.50 C279.23,639.40 278.44,638.31 278.28,638.08 C278.13,637.85 278.00,638.14 278.00,638.71 ZM282.00,645.00 C282.59,646.10 283.30,647.00 283.57,647.00 C283.85,647.00 283.59,646.10 283.00,645.00 C282.41,643.90 281.70,643.00 281.43,643.00 C281.15,643.00 281.41,643.90 282.00,645.00 ZM204.00,646.06 C204.00,646.64 204.45,646.84 205.00,646.50 C205.55,646.16 206.00,645.68 206.00,645.44 C206.00,645.20 205.55,645.00 205.00,645.00 C204.45,645.00 204.00,645.48 204.00,646.06 ZM259.58,649.87 C259.15,650.56 259.07,651.40 259.40,651.73 C260.29,652.63 261.27,651.31 260.79,649.86 C260.45,648.85 260.21,648.85 259.58,649.87 ZM180.23,654.00 C180.23,655.92 180.44,656.71 180.69,655.75 C180.94,654.79 180.94,653.21 180.69,652.25 C180.44,651.29 180.23,652.08 180.23,654.00 ZM292.61,656.18 C292.90,656.65 293.56,656.77 294.07,656.46 C295.38,655.65 295.23,655.33 293.54,655.33 C292.74,655.33 292.32,655.72 292.61,656.18 ZM180.08,660.58 C180.13,661.75 180.36,661.99 180.68,661.19 C180.97,660.47 180.94,659.60 180.60,659.27 C180.27,658.94 180.04,659.53 180.08,660.58 ZM303.00,665.50 C304.87,667.42 306.62,669.00 306.89,669.00 C307.17,669.00 305.87,667.42 304.00,665.50 C302.13,663.58 300.38,662.00 300.11,662.00 C299.83,662.00 301.13,663.58 303.00,665.50 ZM177.82,670.67 C178.25,672.77 178.50,673.02 178.79,671.64 C179.01,670.62 178.75,669.35 178.22,668.82 C177.59,668.19 177.45,668.85 177.82,670.67 ZM310.17,669.88 C309.07,670.57 309.08,670.82 310.25,671.27 C311.06,671.58 311.67,671.21 311.67,670.40 C311.67,669.63 311.63,669.01 311.58,669.02 C311.54,669.02 310.90,669.41 310.17,669.88 ZM314.00,673.38 C314.00,673.59 314.79,674.37 315.75,675.13 C317.34,676.37 317.37,676.34 316.13,674.75 C314.82,673.08 314.00,672.55 314.00,673.38 ZM177.16,681.00 C177.16,682.38 177.38,682.94 177.66,682.25 C177.94,681.56 177.94,680.44 177.66,679.75 C177.38,679.06 177.16,679.62 177.16,681.00 ZM213.16,682.00 C213.16,683.38 213.38,683.94 213.66,683.25 C213.94,682.56 213.94,681.44 213.66,680.75 C213.38,680.06 213.16,680.62 213.16,682.00 ZM177.08,685.58 C177.13,686.75 177.36,686.99 177.68,686.19 C177.97,685.47 177.94,684.60 177.60,684.27 C177.27,683.94 177.04,684.53 177.08,685.58 ZM310.75,689.66 C311.44,689.94 312.56,689.94 313.25,689.66 C313.94,689.38 313.38,689.16 312.00,689.16 C310.62,689.16 310.06,689.38 310.75,689.66 ZM302.75,690.66 C303.44,690.94 304.56,690.94 305.25,690.66 C305.94,690.38 305.38,690.16 304.00,690.16 C302.62,690.16 302.06,690.38 302.75,690.66 Z"/>
</g>
<g id="6e3417">
<path fill="#6e3417" fill-rule="evenodd" d="M417.41,1.17 C410.88,2.58 402.93,7.92 399.80,13.00 C394.52,21.57 394.56,29.28 399.98,47.50 C401.74,53.40 404.45,73.88 403.59,74.74 C403.44,74.89 401.97,74.74 400.33,74.42 C398.01,73.95 397.05,73.00 396.07,70.16 C393.95,64.04 388.25,56.20 383.24,52.54 C368.73,41.93 350.75,48.45 355.58,62.58 C359.14,72.98 372.93,74.20 373.22,64.14 C373.38,58.43 369.03,56.10 365.49,60.01 C363.54,62.17 363.74,62.69 367.23,64.43 C370.19,65.90 370.14,68.41 367.15,68.83 C363.10,69.41 360.09,68.08 358.52,65.04 C353.05,54.46 363.63,46.26 375.40,51.95 C385.02,56.61 394.88,71.71 391.40,76.47 C390.13,78.20 389.94,78.20 386.29,76.46 C380.76,73.82 368.17,73.28 362.53,75.44 C357.64,77.30 352.39,82.58 351.37,86.66 C349.11,95.67 362.91,103.18 369.55,96.55 C372.28,93.81 372.41,93.21 371.05,89.63 C369.01,84.27 362.00,84.16 362.00,89.48 C362.00,92.44 363.60,93.57 365.53,91.97 C367.09,90.68 370.00,91.31 370.00,92.93 C370.00,94.84 365.60,98.00 362.95,98.00 C359.71,98.00 355.19,94.64 353.92,91.28 C352.60,87.83 355.30,82.60 359.86,79.77 C362.85,77.90 364.93,77.50 371.50,77.50 C381.65,77.50 386.88,80.05 393.96,88.44 C403.41,99.64 409.47,114.08 412.59,132.83 C415.05,147.58 417.96,150.24 424.50,143.70 C427.17,141.03 427.92,139.34 428.41,134.95 C428.74,131.95 428.89,127.98 428.75,126.11 C428.53,123.06 428.85,122.60 432.00,121.44 C433.93,120.73 438.33,120.12 441.78,120.08 C447.52,120.01 448.95,120.47 458.54,125.50 C468.27,130.60 469.53,131.00 475.83,131.00 C491.49,131.00 504.00,123.02 504.00,113.05 C504.00,111.37 502.59,105.68 500.87,100.41 C497.08,88.80 497.29,83.33 501.91,74.19 C509.64,58.86 512.43,42.52 508.77,33.93 C501.23,16.22 478.28,13.98 458.39,28.99 L453.22,32.90 L452.52,27.20 C450.28,8.81 434.90,-2.59 417.41,1.17 ZM434.67,4.62 C439.35,6.29 446.39,13.31 448.54,18.43 C449.30,20.25 450.22,24.67 450.59,28.25 L451.25,34.77 L447.33,39.14 C445.17,41.54 441.09,46.42 438.28,50.00 C435.46,53.58 430.26,59.35 426.72,62.82 L420.30,69.15 L419.73,59.32 C419.42,53.92 417.92,43.88 416.41,37.00 C411.68,15.48 413.01,3.62 420.24,2.73 C424.68,2.18 429.69,2.84 434.67,4.62 ZM502.32,28.35 C506.41,32.93 508.00,37.44 507.98,44.37 C507.94,52.52 506.72,57.40 501.88,68.78 C499.66,74.01 497.34,80.63 496.74,83.49 C495.60,88.93 495.72,89.65 500.55,107.09 C502.08,112.58 502.17,114.16 501.14,116.59 C498.15,123.63 484.08,129.80 473.50,128.71 C470.08,128.36 465.18,126.49 458.30,122.91 C449.02,118.08 447.59,117.63 441.82,117.72 C438.34,117.78 433.66,118.49 431.42,119.31 L427.34,120.79 L421.67,107.52 C418.55,100.21 416.01,93.62 416.01,92.87 C416.02,92.12 419.86,89.50 424.55,87.06 C435.81,81.20 443.24,74.27 449.93,63.35 C466.16,36.90 473.88,29.06 487.03,25.65 C494.53,23.71 498.86,24.47 502.32,28.35 ZM238.50,51.60 C226.73,54.46 216.72,60.96 205.96,72.73 C199.89,79.38 193.92,91.49 191.09,102.94 C188.54,113.24 186.64,131.69 187.17,141.05 C187.39,144.86 187.25,147.42 186.88,146.74 C183.51,140.69 182.94,111.45 185.97,99.64 C188.45,89.91 195.57,76.08 201.66,69.13 L206.36,63.76 L199.93,64.50 C182.16,66.54 165.57,75.82 155.32,89.45 C143.10,105.71 136.73,126.12 133.61,159.04 C132.01,175.94 131.24,178.58 123.16,194.70 C118.84,203.31 112.00,221.99 112.00,225.16 C112.00,225.78 110.02,230.61 107.61,235.89 C100.07,252.40 99.19,264.07 104.73,274.24 C107.61,279.54 114.62,285.66 118.93,286.63 C120.34,286.95 123.73,288.29 126.45,289.61 C132.98,292.77 134.76,292.80 132.75,289.74 C131.93,288.49 130.94,285.90 130.55,283.99 L129.84,280.50 L133.67,284.78 C136.04,287.44 139.34,289.75 142.33,290.87 L147.16,292.67 L139.36,302.58 C122.13,324.50 115.99,333.25 106.07,350.00 C100.37,359.62 95.07,368.02 94.28,368.67 C92.06,370.47 77.38,371.27 69.00,370.05 C57.45,368.36 57.59,368.36 57.21,370.24 C56.97,371.40 58.13,372.73 60.66,374.22 L64.46,376.47 L57.48,378.00 C51.71,379.28 50.50,379.89 50.50,381.52 C50.50,383.21 51.36,383.57 56.36,384.00 L62.22,384.50 L56.47,387.31 C49.82,390.56 50.16,392.33 57.45,392.33 C60.80,392.33 61.72,392.64 60.99,393.51 C60.46,394.16 60.31,394.98 60.68,395.34 C62.00,396.67 65.39,395.93 70.95,393.10 C75.80,390.64 77.29,390.32 80.87,390.98 C86.35,391.98 86.63,392.38 84.11,395.58 C80.03,400.77 83.02,404.18 87.81,399.80 C89.29,398.45 92.79,395.92 95.59,394.17 C99.05,392.01 101.52,389.47 103.28,386.25 C104.71,383.64 108.21,379.25 111.05,376.50 C117.96,369.81 144.84,338.71 152.98,327.96 C156.57,323.23 164.79,312.89 171.25,304.98 C179.54,294.82 183.00,289.82 183.00,287.99 C183.00,286.56 181.70,283.34 180.11,280.84 C176.59,275.28 170.47,272.00 163.63,272.00 C158.95,272.00 158.86,271.94 156.83,267.34 C155.23,263.73 154.90,261.51 155.37,257.54 C156.09,251.34 159.18,242.06 162.07,237.39 L164.18,233.97 L167.06,236.40 C169.99,238.86 177.51,241.00 183.30,241.00 C187.60,241.01 202.66,243.66 212.50,246.14 C220.91,248.26 223.29,249.74 225.63,254.25 C226.41,255.76 227.45,257.00 227.94,257.00 C229.26,257.00 231.00,247.79 231.00,240.83 C231.00,235.86 231.24,234.96 232.34,235.87 C233.08,236.48 233.98,236.69 234.34,236.32 C235.77,234.90 234.92,223.82 233.00,218.76 C231.90,215.87 231.00,213.47 231.00,213.43 C231.00,213.39 234.17,214.41 238.04,215.71 C245.33,218.16 246.98,218.06 247.03,215.19 C247.05,214.26 247.87,211.16 248.86,208.31 L250.65,203.12 L252.67,207.90 C254.34,211.84 255.69,213.25 260.37,215.93 C267.39,219.94 282.21,233.81 284.39,238.40 C285.27,240.27 286.02,243.08 286.04,244.65 L286.08,247.50 L289.42,243.73 C293.57,239.03 295.46,232.60 294.70,225.72 C293.85,217.93 287.16,205.27 279.46,196.88 C275.91,193.01 273.00,189.46 273.00,189.00 C273.00,188.54 272.75,187.51 272.44,186.71 C272.07,185.75 272.71,185.04 274.29,184.64 C275.95,184.23 278.12,181.61 281.33,176.19 C289.34,162.62 290.47,159.44 290.47,150.50 C290.47,141.27 288.62,136.79 281.70,129.29 C278.63,125.96 277.62,124.08 277.83,122.10 C278.24,118.17 276.33,107.34 273.95,100.08 C272.17,94.65 272.05,93.30 273.12,90.71 C274.97,86.25 274.53,76.31 272.22,70.28 C267.76,58.67 258.81,51.94 247.10,51.41 C243.47,51.25 239.60,51.33 238.50,51.60 ZM286.50,253.06 C285.50,257.70 283.53,261.48 278.79,267.84 C273.47,274.96 272.29,282.15 275.50,287.81 C279.07,294.09 285.62,303.35 288.14,305.69 C291.26,308.58 303.16,315.12 315.24,320.58 C325.79,325.35 347.16,333.00 349.94,333.00 C350.88,333.00 352.74,334.17 354.08,335.60 C355.41,337.02 358.34,339.27 360.59,340.60 C362.84,341.92 365.19,344.13 365.82,345.50 C367.46,349.10 369.79,348.65 370.55,344.59 C370.90,342.71 370.93,340.35 370.62,339.34 C369.62,336.14 371.47,334.92 380.12,333.03 C394.86,329.81 401.28,325.12 391.25,324.90 L386.50,324.79 L390.00,323.65 C394.70,322.11 396.00,321.17 396.00,319.34 C396.00,318.12 395.04,317.88 391.43,318.16 C386.91,318.52 386.89,318.51 389.08,316.74 C392.08,314.30 390.89,313.53 386.04,314.76 C381.92,315.81 381.06,315.34 383.20,313.20 C385.52,310.88 380.05,311.90 376.21,314.50 C372.90,316.75 371.55,317.00 362.67,317.00 L352.81,317.00 L344.15,310.21 C332.07,300.73 319.91,292.16 310.38,286.41 C302.73,281.78 302.01,281.05 298.02,273.68 C295.69,269.38 292.31,262.21 290.51,257.74 C287.25,249.65 287.24,249.64 286.50,253.06 ZM261.82,576.51 C261.54,576.80 254.65,578.58 246.52,580.48 C238.39,582.38 231.61,584.06 231.46,584.21 C231.31,584.37 236.93,596.03 243.96,610.13 C250.99,624.22 257.79,638.47 259.08,641.79 L261.43,647.83 L265.46,645.50 C267.68,644.22 271.43,642.61 273.79,641.92 C277.66,640.78 278.03,640.40 277.56,638.08 C277.28,636.66 276.11,629.88 274.97,623.00 C273.83,616.12 271.57,603.13 269.95,594.11 C268.33,585.10 267.00,577.34 267.00,576.86 C267.00,575.94 262.68,575.65 261.82,576.51 ZM162.00,586.83 C162.00,587.40 166.50,599.58 172.00,613.90 C179.49,633.39 182.00,641.11 182.00,644.58 C182.00,648.61 182.23,649.12 183.75,648.48 C193.94,644.20 195.51,643.84 199.10,644.91 C201.10,645.51 202.96,646.00 203.24,646.00 C203.51,646.00 203.39,644.09 202.96,641.75 C202.54,639.41 201.45,626.92 200.54,614.00 C199.64,601.08 198.72,589.98 198.52,589.35 C198.28,588.63 194.39,587.98 188.32,587.62 C182.92,587.31 174.79,586.77 170.25,586.42 C164.81,586.00 162.00,586.14 162.00,586.83 ZM279.50,648.27 C277.85,648.81 273.07,650.56 268.87,652.15 C262.01,654.76 261.18,655.37 260.62,658.15 C259.71,662.69 259.80,663.00 262.03,663.00 C265.07,663.00 270.07,665.32 277.68,670.27 C286.09,675.74 290.99,677.42 296.14,676.59 C299.97,675.98 306.96,672.23 306.99,670.78 C307.00,669.84 303.45,666.31 291.98,655.89 C282.96,647.70 282.36,647.34 279.50,648.27 ZM193.50,653.68 C187.02,655.13 182.03,657.33 181.51,658.96 C180.43,662.36 180.63,670.47 181.91,674.93 C183.30,679.79 187.79,684.66 191.81,685.67 C197.62,687.12 204.46,680.56 207.64,670.49 C209.19,665.54 209.18,664.90 207.46,659.12 L205.62,653.00 L200.56,653.12 C197.78,653.18 194.60,653.43 193.50,653.68 Z"/>
</g>
<g id="f6d0c2">
<path fill="#f6d0c2" fill-rule="evenodd" d="M418.81,0.68 C419.53,0.97 420.40,0.94 420.73,0.60 C421.06,0.27 420.47,0.04 419.42,0.08 C418.25,0.13 418.01,0.36 418.81,0.68 ZM427.75,0.66 C428.44,0.94 429.56,0.94 430.25,0.66 C430.94,0.38 430.38,0.16 429.00,0.16 C427.62,0.16 427.06,0.38 427.75,0.66 ZM423.81,2.68 C424.53,2.97 425.40,2.94 425.73,2.60 C426.06,2.27 425.47,2.04 424.42,2.08 C423.25,2.13 423.01,2.36 423.81,2.68 ZM435.00,2.39 C435.00,2.61 435.70,3.05 436.55,3.38 C437.44,3.72 437.84,3.56 437.49,2.99 C436.91,2.04 435.00,1.58 435.00,2.39 ZM441.00,5.31 C441.00,5.49 442.46,6.95 444.25,8.56 L447.50,11.50 L444.56,8.25 C441.83,5.22 441.00,4.54 441.00,5.31 ZM414.08,9.58 C414.13,10.75 414.36,10.99 414.68,10.19 C414.97,9.47 414.94,8.60 414.60,8.27 C414.27,7.94 414.04,8.53 414.08,9.58 ZM413.25,17.50 C413.26,19.70 413.47,20.48 413.71,19.24 C413.95,17.99 413.94,16.19 413.69,15.24 C413.44,14.28 413.24,15.30 413.25,17.50 ZM447.56,18.29 C447.94,19.28 448.50,19.83 448.81,19.53 C449.11,19.22 448.81,18.41 448.12,17.73 C447.14,16.75 447.02,16.87 447.56,18.29 ZM482.26,18.72 C483.78,18.95 486.03,18.94 487.26,18.70 C488.49,18.47 487.25,18.28 484.50,18.29 C481.75,18.29 480.74,18.49 482.26,18.72 ZM475.81,19.68 C476.53,19.97 477.40,19.94 477.73,19.60 C478.06,19.27 477.47,19.04 476.42,19.08 C475.25,19.13 475.01,19.36 475.81,19.68 ZM395.16,24.00 C395.16,25.38 395.38,25.94 395.66,25.25 C395.94,24.56 395.94,23.44 395.66,22.75 C395.38,22.06 395.16,22.62 395.16,24.00 ZM466.51,22.99 C466.16,23.56 466.56,23.72 467.45,23.38 C469.18,22.72 469.50,22.00 468.06,22.00 C467.54,22.00 466.84,22.44 466.51,22.99 ZM452.16,25.00 C452.16,26.38 452.38,26.94 452.66,26.25 C452.94,25.56 452.94,24.44 452.66,23.75 C452.38,23.06 452.16,23.62 452.16,25.00 ZM414.16,26.00 C414.16,27.38 414.38,27.94 414.66,27.25 C414.94,26.56 414.94,25.44 414.66,24.75 C414.38,24.06 414.16,24.62 414.16,26.00 ZM502.00,24.38 C502.00,24.59 502.79,25.37 503.75,26.13 C505.34,27.37 505.37,27.34 504.13,25.75 C502.82,24.08 502.00,23.55 502.00,24.38 ZM498.00,25.71 C498.82,26.01 500.40,26.99 501.50,27.88 C503.48,29.49 503.48,29.48 501.60,27.25 C500.55,26.01 498.97,25.04 498.10,25.08 C496.74,25.15 496.73,25.24 498.00,25.71 ZM450.27,31.00 C450.27,33.48 450.47,34.49 450.71,33.25 C450.94,32.01 450.94,29.99 450.71,28.75 C450.47,27.51 450.27,28.52 450.27,31.00 ZM457.87,28.75 C456.63,30.34 456.66,30.37 458.25,29.13 C459.21,28.37 460.00,27.59 460.00,27.38 C460.00,26.55 459.18,27.08 457.87,28.75 ZM395.16,30.00 C395.16,31.38 395.38,31.94 395.66,31.25 C395.94,30.56 395.94,29.44 395.66,28.75 C395.38,28.06 395.16,28.62 395.16,30.00 ZM453.87,31.75 C452.63,33.34 452.66,33.37 454.25,32.13 C455.21,31.37 456.00,30.59 456.00,30.38 C456.00,29.55 455.18,30.08 453.87,31.75 ZM504.56,32.29 C504.94,33.28 505.50,33.83 505.81,33.53 C506.11,33.22 505.81,32.41 505.12,31.73 C504.14,30.75 504.02,30.87 504.56,32.29 ZM467.97,37.75 L462.50,43.50 L468.25,38.03 C471.41,35.03 474.00,32.44 474.00,32.28 C474.00,31.54 473.04,32.41 467.97,37.75 ZM396.08,35.58 C396.13,36.75 396.36,36.99 396.68,36.19 C396.97,35.47 396.94,34.60 396.60,34.27 C396.27,33.94 396.04,34.53 396.08,35.58 ZM446.44,39.25 L443.50,42.50 L446.75,39.56 C449.78,36.83 450.46,36.00 449.69,36.00 C449.51,36.00 448.05,37.46 446.44,39.25 ZM510.16,40.00 C510.16,41.38 510.38,41.94 510.66,41.25 C510.94,40.56 510.94,39.44 510.66,38.75 C510.38,38.06 510.16,38.62 510.16,40.00 ZM417.08,40.58 C417.13,41.75 417.36,41.99 417.68,41.19 C417.97,40.47 417.94,39.60 417.60,39.27 C417.27,38.94 417.04,39.53 417.08,40.58 ZM203.00,42.29 C201.40,43.09 200.38,44.56 200.17,46.37 C199.90,48.74 199.50,49.09 197.67,48.58 C190.94,46.67 185.65,45.92 180.87,46.19 L175.50,46.50 L175.53,51.53 C175.55,54.30 176.36,58.64 177.33,61.19 C179.04,65.66 179.24,65.82 183.80,66.22 C186.38,66.45 189.66,66.32 191.08,65.93 C192.50,65.55 196.52,64.90 200.02,64.50 L206.36,63.76 L201.66,69.13 C195.57,76.08 188.45,89.91 185.97,99.64 C182.94,111.45 183.51,140.69 186.88,146.74 C187.25,147.42 187.39,144.86 187.17,141.05 C186.96,137.24 187.28,129.00 187.89,122.75 C190.28,98.32 196.56,82.29 208.38,70.47 C212.29,66.55 217.53,61.65 220.00,59.58 C222.47,57.51 223.93,56.11 223.24,56.47 C222.25,56.99 222.11,55.61 222.62,50.15 L223.27,43.17 L219.39,42.09 C214.17,40.64 206.07,40.74 203.00,42.29 ZM192.68,57.05 C202.52,58.37 207.72,59.93 205.94,61.04 C203.99,62.24 189.00,64.19 184.56,63.82 C181.09,63.53 180.56,63.11 179.40,59.75 L178.10,56.00 L181.48,56.00 C183.34,56.00 188.38,56.47 192.68,57.05 ZM418.08,45.58 C418.13,46.75 418.36,46.99 418.68,46.19 C418.97,45.47 418.94,44.60 418.60,44.27 C418.27,43.94 418.04,44.53 418.08,45.58 ZM440.87,45.75 C439.63,47.34 439.66,47.37 441.25,46.13 C442.92,44.82 443.45,44.00 442.62,44.00 C442.41,44.00 441.63,44.79 440.87,45.75 ZM510.19,48.50 C510.22,50.15 510.44,50.70 510.69,49.73 C510.95,48.76 510.93,47.41 510.66,46.73 C510.38,46.05 510.17,46.85 510.19,48.50 ZM437.87,49.75 C436.63,51.34 436.66,51.37 438.25,50.13 C439.21,49.37 440.00,48.59 440.00,48.38 C440.00,47.55 439.18,48.08 437.87,49.75 ZM400.08,50.58 C400.13,51.75 400.36,51.99 400.68,51.19 C400.97,50.47 400.94,49.60 400.60,49.27 C400.27,48.94 400.04,49.53 400.08,50.58 ZM507.08,50.58 C507.13,51.75 507.36,51.99 507.68,51.19 C507.97,50.47 507.94,49.60 507.60,49.27 C507.27,48.94 507.04,49.53 507.08,50.58 ZM369.81,50.68 C370.53,50.97 371.40,50.94 371.73,50.60 C372.06,50.27 371.47,50.04 370.42,50.08 C369.25,50.13 369.01,50.36 369.81,50.68 ZM419.16,52.00 C419.16,53.38 419.38,53.94 419.66,53.25 C419.94,52.56 419.94,51.44 419.66,50.75 C419.38,50.06 419.16,50.62 419.16,52.00 ZM237.81,51.68 C238.53,51.97 239.40,51.94 239.73,51.60 C240.06,51.27 239.47,51.04 238.42,51.08 C237.25,51.13 237.01,51.36 237.81,51.68 ZM257.00,53.39 C257.00,53.61 257.70,54.05 258.55,54.38 C259.44,54.72 259.84,54.56 259.49,53.99 C258.91,53.04 257.00,52.58 257.00,53.39 ZM401.08,54.58 C401.13,55.75 401.36,55.99 401.68,55.19 C401.97,54.47 401.94,53.60 401.60,53.27 C401.27,52.94 401.04,53.53 401.08,54.58 ZM427.48,61.25 L419.50,69.50 L427.75,61.52 C432.29,57.14 436.00,53.42 436.00,53.27 C436.00,52.54 434.88,53.59 427.48,61.25 ZM506.08,55.58 C506.13,56.75 506.36,56.99 506.68,56.19 C506.97,55.47 506.94,54.60 506.60,54.27 C506.27,53.94 506.04,54.53 506.08,55.58 ZM354.08,56.58 C354.13,57.75 354.36,57.99 354.68,57.19 C354.97,56.47 354.94,55.60 354.60,55.27 C354.27,54.94 354.04,55.53 354.08,56.58 ZM364.87,59.75 C363.63,61.34 363.66,61.37 365.25,60.13 C366.21,59.37 367.00,58.59 367.00,58.38 C367.00,57.55 366.18,58.08 364.87,59.75 ZM402.16,60.00 C402.16,61.38 402.38,61.94 402.66,61.25 C402.94,60.56 402.94,59.44 402.66,58.75 C402.38,58.06 402.16,58.62 402.16,60.00 ZM364.77,64.17 C365.35,64.75 366.42,65.03 367.14,64.79 C367.89,64.54 367.43,64.08 366.08,63.73 C364.42,63.30 364.03,63.43 364.77,64.17 ZM447.46,67.25 C445.92,69.59 445.30,70.97 446.08,70.33 C447.58,69.09 451.41,63.00 450.69,63.00 C450.46,63.00 449.00,64.91 447.46,67.25 ZM373.08,65.58 C373.13,66.75 373.36,66.99 373.68,66.19 C373.97,65.47 373.94,64.60 373.60,64.27 C373.27,63.94 373.04,64.53 373.08,65.58 ZM505.62,65.54 C504.66,68.05 504.94,68.70 506.12,66.67 C506.71,65.67 506.97,64.64 506.72,64.38 C506.46,64.12 505.97,64.64 505.62,65.54 ZM368.56,67.71 C368.02,69.13 368.14,69.25 369.12,68.27 C369.81,67.59 370.11,66.78 369.81,66.47 C369.50,66.17 368.94,66.72 368.56,67.71 ZM370.87,69.75 C369.63,71.34 369.66,71.37 371.25,70.13 C372.92,68.82 373.45,68.00 372.62,68.00 C372.41,68.00 371.63,68.79 370.87,69.75 ZM365.27,71.69 C366.24,71.95 367.59,71.93 368.27,71.66 C368.95,71.38 368.15,71.17 366.50,71.19 C364.85,71.22 364.30,71.44 365.27,71.69 ZM403.00,72.42 C403.00,73.20 402.44,74.06 401.75,74.34 C401.00,74.64 401.20,74.87 402.25,74.92 C403.36,74.97 404.00,74.27 404.00,73.00 C404.00,71.90 403.77,71.00 403.50,71.00 C403.23,71.00 403.00,71.64 403.00,72.42 ZM369.77,73.72 C371.57,73.95 374.27,73.94 375.77,73.71 C377.27,73.49 375.80,73.30 372.50,73.31 C369.20,73.32 367.97,73.50 369.77,73.72 ZM440.44,76.25 L437.50,79.50 L440.75,76.56 C443.78,73.83 444.46,73.00 443.69,73.00 C443.51,73.00 442.05,74.46 440.44,76.25 ZM274.16,78.00 C274.16,79.38 274.38,79.94 274.66,79.25 C274.94,78.56 274.94,77.44 274.66,76.75 C274.38,76.06 274.16,76.62 274.16,78.00 ZM387.77,77.17 C388.35,77.75 389.42,78.03 390.14,77.79 C390.89,77.54 390.43,77.08 389.08,76.73 C387.42,76.30 387.03,76.43 387.77,77.17 ZM164.40,79.25 L162.50,81.50 L164.75,79.60 C166.86,77.80 167.46,77.00 166.65,77.00 C166.47,77.00 165.45,78.01 164.40,79.25 ZM366.75,77.66 C367.44,77.94 368.56,77.94 369.25,77.66 C369.94,77.38 369.38,77.16 368.00,77.16 C366.62,77.16 366.06,77.38 366.75,77.66 ZM373.25,77.69 C374.21,77.94 375.79,77.94 376.75,77.69 C377.71,77.44 376.93,77.23 375.00,77.23 C373.07,77.23 372.29,77.44 373.25,77.69 ZM354.40,80.25 L352.50,82.50 L354.75,80.60 C356.86,78.80 357.46,78.00 356.65,78.00 C356.47,78.00 355.45,79.01 354.40,80.25 ZM382.00,79.39 C382.00,79.61 382.70,80.05 383.55,80.38 C384.44,80.72 384.84,80.56 384.49,79.99 C383.91,79.04 382.00,78.58 382.00,79.39 ZM388.00,82.38 C388.00,82.59 388.79,83.37 389.75,84.13 C391.34,85.37 391.37,85.34 390.13,83.75 C388.82,82.08 388.00,81.55 388.00,82.38 ZM274.16,86.00 C274.16,87.38 274.38,87.94 274.66,87.25 C274.94,86.56 274.94,85.44 274.66,84.75 C274.38,84.06 274.16,84.62 274.16,86.00 ZM354.46,85.07 C354.10,85.65 354.01,86.35 354.28,86.61 C354.54,86.87 355.02,86.39 355.35,85.54 C356.02,83.78 355.44,83.47 354.46,85.07 ZM362.51,85.99 C362.16,86.56 362.56,86.72 363.45,86.38 C365.18,85.72 365.50,85.00 364.06,85.00 C363.54,85.00 362.84,85.44 362.51,85.99 ZM155.87,87.75 C154.63,89.34 154.66,89.37 156.25,88.13 C157.21,87.37 158.00,86.59 158.00,86.38 C158.00,85.55 157.18,86.08 155.87,87.75 ZM391.00,86.31 C391.00,86.49 392.46,87.95 394.25,89.56 L397.50,92.50 L394.56,89.25 C391.83,86.22 391.00,85.54 391.00,86.31 ZM498.08,91.58 C498.13,92.75 498.36,92.99 498.68,92.19 C498.97,91.47 498.94,90.60 498.60,90.27 C498.27,89.94 498.04,90.53 498.08,91.58 ZM365.54,91.93 C365.14,92.58 365.53,92.73 366.55,92.34 C367.48,91.99 368.63,92.32 369.18,93.10 C369.99,94.27 370.08,94.25 369.74,93.00 C369.25,91.19 366.44,90.48 365.54,91.93 ZM496.16,94.00 C496.16,95.38 496.38,95.94 496.66,95.25 C496.94,94.56 496.94,93.44 496.66,92.75 C496.38,92.06 496.16,92.62 496.16,94.00 ZM354.76,96.75 C356.05,97.99 357.65,98.99 358.31,98.97 C358.96,98.95 358.60,98.44 357.50,97.83 C356.40,97.22 354.80,96.22 353.95,95.61 C353.10,95.00 353.46,95.51 354.76,96.75 ZM370.10,96.30 C368.84,98.40 368.86,98.42 370.58,96.77 C371.57,95.82 372.17,94.83 371.90,94.57 C371.64,94.31 370.83,95.08 370.10,96.30 ZM361.25,97.69 C362.21,97.94 363.79,97.94 364.75,97.69 C365.71,97.44 364.93,97.23 363.00,97.23 C361.07,97.23 360.29,97.44 361.25,97.69 ZM361.27,99.69 C362.24,99.95 363.59,99.93 364.27,99.66 C364.95,99.38 364.15,99.17 362.50,99.19 C360.85,99.22 360.30,99.44 361.27,99.69 ZM503.08,107.58 C503.13,108.75 503.36,108.99 503.68,108.19 C503.97,107.47 503.94,106.60 503.60,106.27 C503.27,105.94 503.04,106.53 503.08,107.58 ZM501.23,113.00 C501.23,114.92 501.44,115.71 501.69,114.75 C501.94,113.79 501.94,112.21 501.69,111.25 C501.44,110.29 501.23,111.08 501.23,113.00 ZM277.16,114.00 C277.16,115.38 277.38,115.94 277.66,115.25 C277.94,114.56 277.94,113.44 277.66,112.75 C277.38,112.06 277.16,112.62 277.16,114.00 ZM436.75,117.66 C437.44,117.94 438.56,117.94 439.25,117.66 C439.94,117.38 439.38,117.16 438.00,117.16 C436.62,117.16 436.06,117.38 436.75,117.66 ZM444.81,117.68 C445.53,117.97 446.40,117.94 446.73,117.60 C447.06,117.27 446.47,117.04 445.42,117.08 C444.25,117.13 444.01,117.36 444.81,117.68 ZM446.81,120.68 C447.53,120.97 448.40,120.94 448.73,120.60 C449.06,120.27 448.47,120.04 447.42,120.08 C446.25,120.13 446.01,120.36 446.81,120.68 ZM454.00,120.39 C454.00,120.61 454.70,121.05 455.55,121.38 C456.44,121.72 456.84,121.56 456.49,120.99 C455.91,120.04 454.00,119.58 454.00,120.39 ZM428.37,123.47 C428.06,124.27 428.04,125.51 428.33,126.22 C428.61,126.92 428.88,126.52 428.92,125.33 C428.96,124.14 429.56,122.94 430.25,122.66 C431.23,122.27 431.22,122.14 430.22,122.08 C429.51,122.04 428.68,122.66 428.37,123.47 ZM277.00,124.31 C277.00,124.49 278.46,125.95 280.25,127.56 L283.50,130.50 L280.56,127.25 C277.83,124.22 277.00,123.54 277.00,124.31 ZM491.00,125.00 C490.10,125.58 489.98,125.98 490.69,125.98 C491.35,125.99 492.16,125.55 492.50,125.00 C493.27,123.76 492.92,123.76 491.00,125.00 ZM411.08,127.58 C411.13,128.75 411.36,128.99 411.68,128.19 C411.97,127.47 411.94,126.60 411.60,126.27 C411.27,125.94 411.04,126.53 411.08,127.58 ZM137.08,129.58 C137.13,130.75 137.36,130.99 137.68,130.19 C137.97,129.47 137.94,128.60 137.60,128.27 C137.27,127.94 137.04,128.53 137.08,129.58 ZM473.25,128.72 C474.76,128.95 477.24,128.95 478.75,128.72 C480.26,128.49 479.02,128.30 476.00,128.30 C472.98,128.30 471.74,128.49 473.25,128.72 ZM473.25,131.72 C474.76,131.95 477.24,131.95 478.75,131.72 C480.26,131.49 479.02,131.30 476.00,131.30 C472.98,131.30 471.74,131.49 473.25,131.72 ZM412.08,133.58 C412.13,134.75 412.36,134.99 412.68,134.19 C412.97,133.47 412.94,132.60 412.60,132.27 C412.27,131.94 412.04,132.53 412.08,133.58 ZM136.08,134.58 C136.13,135.75 136.36,135.99 136.68,135.19 C136.97,134.47 136.94,133.60 136.60,133.27 C136.27,132.94 136.04,133.53 136.08,134.58 ZM428.08,136.58 C428.13,137.75 428.36,137.99 428.68,137.19 C428.97,136.47 428.94,135.60 428.60,135.27 C428.27,134.94 428.04,135.53 428.08,136.58 ZM413.08,139.58 C413.13,140.75 413.36,140.99 413.68,140.19 C413.97,139.47 413.94,138.60 413.60,138.27 C413.27,137.94 413.04,138.53 413.08,139.58 ZM135.08,140.58 C135.13,141.75 135.36,141.99 135.68,141.19 C135.97,140.47 135.94,139.60 135.60,139.27 C135.27,138.94 135.04,139.53 135.08,140.58 ZM424.40,144.25 L422.50,146.50 L424.75,144.60 C426.86,142.80 427.46,142.00 426.65,142.00 C426.47,142.00 425.45,143.01 424.40,144.25 ZM134.16,147.00 C134.16,148.38 134.38,148.94 134.66,148.25 C134.94,147.56 134.94,146.44 134.66,145.75 C134.38,145.06 134.16,145.62 134.16,147.00 ZM133.27,157.00 C133.27,159.48 133.47,160.49 133.71,159.25 C133.94,158.01 133.94,155.99 133.71,154.75 C133.47,153.51 133.27,154.52 133.27,157.00 ZM132.19,168.50 C132.22,170.15 132.44,170.70 132.69,169.73 C132.95,168.76 132.93,167.41 132.66,166.73 C132.38,166.05 132.17,166.85 132.19,168.50 ZM131.08,174.58 C131.13,175.75 131.36,175.99 131.68,175.19 C131.97,174.47 131.94,173.60 131.60,173.27 C131.27,172.94 131.04,173.53 131.08,174.58 ZM276.00,184.00 C275.10,184.58 274.98,184.98 275.69,184.98 C276.35,184.99 277.16,184.55 277.50,184.00 C278.27,182.76 277.92,182.76 276.00,184.00 ZM126.46,186.07 C126.10,186.65 126.01,187.35 126.28,187.61 C126.54,187.87 127.02,187.39 127.35,186.54 C128.02,184.78 127.44,184.47 126.46,186.07 ZM273.00,188.94 C273.00,189.46 273.44,190.16 273.99,190.49 C274.56,190.84 274.72,190.44 274.38,189.55 C273.72,187.82 273.00,187.50 273.00,188.94 ZM122.45,194.10 C121.03,196.90 120.03,199.37 120.24,199.57 C120.44,199.78 121.82,197.48 123.29,194.47 C124.77,191.46 125.77,189.00 125.51,189.00 C125.25,189.00 123.87,191.29 122.45,194.10 ZM278.96,196.25 C283.10,200.67 284.00,201.46 284.00,200.71 C284.00,200.55 281.86,198.41 279.25,195.96 L274.50,191.50 L278.96,196.25 ZM248.65,209.31 C247.64,212.71 246.64,216.07 246.43,216.77 C245.99,218.22 243.25,217.75 235.75,214.96 C233.14,213.99 231.00,213.26 231.00,213.35 C231.00,213.43 231.90,215.87 233.00,218.76 C234.12,221.70 235.00,226.44 235.00,229.51 C235.00,232.53 235.27,235.00 235.60,235.00 C235.92,235.00 237.46,234.25 239.00,233.34 C242.36,231.36 246.00,225.25 246.00,221.61 C246.00,218.39 246.28,218.38 249.41,221.50 C252.55,224.64 255.50,224.69 257.51,221.62 C260.15,217.60 260.10,215.37 257.36,214.12 C255.87,213.44 254.01,211.01 252.69,208.05 L250.50,203.11 L248.65,209.31 ZM291.00,215.00 C291.59,216.10 292.30,217.00 292.57,217.00 C292.85,217.00 292.59,216.10 292.00,215.00 C291.41,213.90 290.70,213.00 290.43,213.00 C290.15,213.00 290.41,213.90 291.00,215.00 ZM269.12,222.50 C269.59,224.31 267.00,234.19 265.35,236.87 C262.78,241.06 257.41,245.07 250.76,247.75 C244.92,250.11 239.36,250.41 231.89,248.77 C231.15,248.61 230.29,250.22 229.77,252.75 C228.74,257.69 227.62,258.09 225.63,254.25 C224.85,252.73 223.35,250.72 222.31,249.78 C220.22,247.89 200.18,242.71 196.69,243.16 C195.49,243.31 193.89,243.06 193.15,242.60 C192.20,242.01 191.91,242.24 192.15,243.40 C192.34,244.30 197.00,248.98 202.50,253.80 C209.48,259.92 213.40,264.21 215.48,268.03 C218.35,273.30 218.47,274.06 218.84,288.77 C219.14,301.18 218.90,305.03 217.52,309.27 C215.29,316.13 213.70,317.74 207.35,319.59 C202.61,320.97 201.44,320.97 196.27,319.62 C193.10,318.79 186.54,316.06 181.71,313.56 C176.87,311.05 171.97,309.00 170.80,309.00 C168.75,309.00 168.74,308.94 170.50,307.00 C171.50,305.90 172.08,305.00 171.80,305.00 C171.09,305.00 159.77,318.84 152.80,328.21 C149.65,332.45 145.42,337.75 143.39,339.98 C141.37,342.22 139.90,344.20 140.11,344.39 C140.32,344.57 143.88,343.65 148.00,342.34 C159.82,338.59 159.96,338.63 151.50,343.30 C134.86,352.51 129.86,355.88 125.82,360.62 C123.53,363.30 117.97,369.32 113.46,374.00 C108.95,378.68 104.21,384.42 102.93,386.77 C101.44,389.51 98.79,392.18 95.55,394.20 C92.77,395.93 89.29,398.45 87.81,399.80 C83.11,404.10 80.02,400.79 84.00,395.73 C85.10,394.33 86.00,392.92 86.00,392.59 C86.00,391.46 83.02,392.01 81.26,393.45 C75.72,398.02 61.98,408.77 59.98,410.09 L57.65,411.65 L60.31,418.29 C67.56,436.42 71.59,443.24 80.87,453.11 C97.23,470.51 115.54,480.83 149.00,491.50 C162.03,495.66 176.41,499.02 192.50,501.66 C207.18,504.07 242.61,504.09 258.29,501.69 C302.37,494.94 343.20,478.24 361.20,459.59 C370.27,450.18 376.56,438.15 375.69,431.83 C375.36,429.45 375.58,425.87 376.17,423.87 C377.17,420.48 376.98,419.87 373.24,414.37 C369.68,409.15 360.94,400.14 353.97,394.50 C341.77,384.63 310.60,364.70 299.24,359.51 C296.35,358.18 291.85,355.32 289.24,353.14 C282.14,347.20 259.46,332.34 251.50,328.41 C246.02,325.70 243.79,325.09 241.25,325.60 C239.46,325.96 238.00,326.55 238.00,326.92 C238.00,327.28 240.06,329.59 242.58,332.04 C245.09,334.49 247.63,337.40 248.22,338.50 C248.80,339.60 246.18,337.55 242.39,333.95 C235.65,327.54 235.40,327.40 230.84,327.79 L226.18,328.19 L228.07,332.34 C230.99,338.77 230.23,340.20 227.19,334.00 C224.62,328.74 224.31,328.49 220.25,328.19 C216.57,327.93 216.00,328.15 216.00,329.88 C216.00,330.98 215.55,332.16 215.00,332.50 C214.42,332.86 214.00,331.84 214.00,330.06 L214.00,327.00 L223.32,327.00 C233.65,327.00 243.00,324.84 243.00,322.46 C243.00,321.30 241.12,320.97 233.75,320.84 L224.50,320.68 L235.50,320.02 C249.83,319.17 254.15,317.25 260.61,308.86 C266.15,301.65 271.99,290.51 272.00,287.13 C272.00,285.03 272.19,284.91 273.68,286.13 C275.16,287.34 275.24,287.29 274.38,285.73 C273.73,284.56 273.83,280.52 274.66,273.73 C275.36,268.10 275.94,257.82 275.96,250.87 C275.99,242.19 276.45,237.16 277.45,234.78 L278.89,231.32 L273.88,226.41 C271.12,223.71 268.98,221.95 269.12,222.50 ZM106.95,235.10 C105.80,237.35 105.03,239.37 105.24,239.57 C105.45,239.78 106.60,237.94 107.80,235.48 C110.52,229.87 109.79,229.54 106.95,235.10 ZM288.40,245.25 L286.50,247.50 L288.75,245.60 C289.99,244.55 291.00,243.53 291.00,243.35 C291.00,242.54 290.20,243.14 288.40,245.25 ZM102.08,247.58 C102.13,248.75 102.36,248.99 102.68,248.19 C102.97,247.47 102.94,246.60 102.60,246.27 C102.27,245.94 102.04,246.53 102.08,247.58 ZM101.08,252.58 C101.13,253.75 101.36,253.99 101.68,253.19 C101.97,252.47 101.94,251.60 101.60,251.27 C101.27,250.94 101.04,251.53 101.08,252.58 ZM101.08,266.58 C101.13,267.75 101.36,267.99 101.68,267.19 C101.97,266.47 101.94,265.60 101.60,265.27 C101.27,264.94 101.04,265.53 101.08,266.58 ZM103.00,272.94 C103.00,273.46 103.44,274.16 103.99,274.49 C104.56,274.84 104.72,274.44 104.38,273.55 C103.72,271.82 103.00,271.50 103.00,272.94 ZM301.56,280.29 C301.94,281.28 302.50,281.83 302.81,281.53 C303.11,281.22 302.81,280.41 302.12,279.73 C301.14,278.75 301.02,278.87 301.56,280.29 ZM130.00,282.33 C130.00,283.07 130.67,283.67 131.48,283.67 C132.61,283.67 132.70,283.34 131.86,282.33 C131.25,281.60 130.59,281.00 130.38,281.00 C130.17,281.00 130.00,281.60 130.00,282.33 ZM111.00,282.38 C111.00,282.59 111.79,283.37 112.75,284.13 C114.34,285.37 114.37,285.34 113.13,283.75 C111.82,282.08 111.00,281.55 111.00,282.38 ZM131.00,286.94 C131.00,287.46 131.44,288.16 131.99,288.49 C132.56,288.84 132.72,288.44 132.38,287.55 C131.72,285.82 131.00,285.50 131.00,286.94 ZM120.81,287.68 C121.53,287.97 122.40,287.94 122.73,287.60 C123.06,287.27 122.47,287.04 121.42,287.08 C120.25,287.13 120.01,287.36 120.81,287.68 ZM133.35,290.76 C133.72,291.35 133.45,292.06 132.76,292.34 C132.00,292.64 132.19,292.87 133.25,292.92 C135.23,293.01 135.59,291.48 133.85,290.40 C133.16,289.98 132.96,290.13 133.35,290.76 ZM174.40,301.25 L172.50,303.50 L174.75,301.60 C176.86,299.80 177.46,299.00 176.65,299.00 C176.47,299.00 175.45,300.01 174.40,301.25 ZM125.20,303.49 C121.67,305.05 118.75,310.43 113.98,324.21 C111.90,330.21 111.33,330.98 108.58,331.50 C101.20,332.92 93.00,335.37 93.00,336.16 C93.00,336.64 93.44,337.81 93.98,338.76 C94.52,339.72 96.37,344.25 98.09,348.84 C99.81,353.43 101.54,356.80 101.94,356.34 C102.34,355.88 105.51,350.77 108.98,345.00 C116.67,332.22 121.88,324.76 132.01,312.04 L139.76,302.32 L134.13,302.18 C131.03,302.10 127.01,302.69 125.20,303.49 ZM284.00,302.31 C284.00,302.49 285.46,303.95 287.25,305.56 L290.50,308.50 L287.56,305.25 C284.83,302.22 284.00,301.54 284.00,302.31 ZM337.00,304.38 C337.00,304.59 337.79,305.37 338.75,306.13 C340.34,307.37 340.37,307.34 339.13,305.75 C337.82,304.08 337.00,303.55 337.00,304.38 ZM341.00,307.38 C341.00,307.59 341.79,308.37 342.75,309.13 C344.34,310.37 344.37,310.34 343.13,308.75 C341.82,307.08 341.00,306.55 341.00,307.38 ZM346.50,312.00 C347.50,313.10 348.53,314.00 348.81,314.00 C349.08,314.00 348.50,313.10 347.50,312.00 C346.50,310.90 345.47,310.00 345.19,310.00 C344.92,310.00 345.50,310.90 346.50,312.00 ZM298.00,312.45 C298.00,312.72 299.35,313.65 301.00,314.50 C302.65,315.35 304.00,315.83 304.00,315.55 C304.00,315.28 302.65,314.35 301.00,313.50 C299.35,312.65 298.00,312.17 298.00,312.45 ZM382.40,314.16 C382.07,314.70 382.07,315.40 382.40,315.73 C382.73,316.06 383.00,315.85 383.00,315.26 C383.00,314.67 383.90,314.42 385.00,314.71 C386.10,315.00 387.00,315.01 387.00,314.73 C387.00,313.72 382.98,313.22 382.40,314.16 ZM350.00,314.38 C350.00,314.59 350.79,315.37 351.75,316.13 C353.34,317.37 353.37,317.34 352.13,315.75 C350.82,314.08 350.00,313.55 350.00,314.38 ZM357.75,316.72 C359.54,316.95 362.46,316.95 364.25,316.72 C366.04,316.50 364.57,316.32 361.00,316.32 C357.43,316.32 355.96,316.50 357.75,316.72 ZM387.87,317.75 C386.63,319.34 386.66,319.37 388.25,318.13 C389.92,316.82 390.45,316.00 389.62,316.00 C389.41,316.00 388.63,316.79 387.87,317.75 ZM388.50,323.93 C387.07,324.49 387.78,324.72 391.00,324.72 C394.22,324.72 394.93,324.49 393.50,323.93 C392.40,323.49 391.27,323.14 391.00,323.14 C390.73,323.14 389.60,323.49 388.50,323.93 ZM392.00,329.50 C390.62,330.29 389.98,330.95 390.56,330.96 C391.14,330.98 392.49,330.34 393.56,329.53 C396.03,327.66 395.24,327.65 392.00,329.50 ZM383.81,332.68 C384.53,332.97 385.40,332.94 385.73,332.60 C386.06,332.27 385.47,332.04 384.42,332.08 C383.25,332.13 383.01,332.36 383.81,332.68 ZM350.09,333.25 C350.32,333.39 352.08,334.85 354.00,336.50 L357.50,339.50 L354.56,336.25 C352.95,334.46 351.19,333.00 350.65,333.00 C350.11,333.00 349.86,333.11 350.09,333.25 ZM267.08,578.58 C267.13,579.75 267.36,579.99 267.68,579.19 C267.97,578.47 267.94,577.60 267.60,577.27 C267.27,576.94 267.04,577.53 267.08,578.58 ZM268.08,584.58 C268.13,585.75 268.36,585.99 268.68,585.19 C268.97,584.47 268.94,583.60 268.60,583.27 C268.27,582.94 268.04,583.53 268.08,584.58 ZM233.50,591.00 C234.35,592.65 235.28,594.00 235.55,594.00 C235.83,594.00 235.35,592.65 234.50,591.00 C233.65,589.35 232.72,588.00 232.45,588.00 C232.17,588.00 232.65,589.35 233.50,591.00 ZM269.16,590.00 C269.16,591.38 269.38,591.94 269.66,591.25 C269.94,590.56 269.94,589.44 269.66,588.75 C269.38,588.06 269.16,588.62 269.16,590.00 ZM270.08,595.58 C270.13,596.75 270.36,596.99 270.68,596.19 C270.97,595.47 270.94,594.60 270.60,594.27 C270.27,593.94 270.04,594.53 270.08,595.58 ZM199.19,597.50 C199.22,599.15 199.44,599.70 199.69,598.73 C199.95,597.76 199.93,596.41 199.66,595.73 C199.38,595.05 199.17,595.85 199.19,597.50 ZM271.08,601.58 C271.13,602.75 271.36,602.99 271.68,602.19 C271.97,601.47 271.94,600.60 271.60,600.27 C271.27,599.94 271.04,600.53 271.08,601.58 ZM272.08,606.58 C272.13,607.75 272.36,607.99 272.68,607.19 C272.97,606.47 272.94,605.60 272.60,605.27 C272.27,604.94 272.04,605.53 272.08,606.58 ZM200.27,610.00 C200.27,612.48 200.47,613.49 200.71,612.25 C200.94,611.01 200.94,608.99 200.71,607.75 C200.47,606.51 200.27,607.52 200.27,610.00 ZM273.08,612.58 C273.13,613.75 273.36,613.99 273.68,613.19 C273.97,612.47 273.94,611.60 273.60,611.27 C273.27,610.94 273.04,611.53 273.08,612.58 ZM274.08,618.58 C274.13,619.75 274.36,619.99 274.68,619.19 C274.97,618.47 274.94,617.60 274.60,617.27 C274.27,616.94 274.04,617.53 274.08,618.58 ZM201.25,624.50 C201.26,626.70 201.47,627.48 201.71,626.24 C201.95,624.99 201.94,623.19 201.69,622.24 C201.44,621.28 201.24,622.30 201.25,624.50 ZM275.08,624.58 C275.13,625.75 275.36,625.99 275.68,625.19 C275.97,624.47 275.94,623.60 275.60,623.27 C275.27,622.94 275.04,623.53 275.08,624.58 ZM252.03,627.50 C252.03,628.05 252.47,629.17 253.00,630.00 C253.53,630.83 253.97,631.05 253.97,630.50 C253.97,629.95 253.53,628.83 253.00,628.00 C252.47,627.17 252.03,626.95 252.03,627.50 ZM276.08,630.58 C276.13,631.75 276.36,631.99 276.68,631.19 C276.97,630.47 276.94,629.60 276.60,629.27 C276.27,628.94 276.04,629.53 276.08,630.58 ZM202.19,636.50 C202.22,638.15 202.44,638.70 202.69,637.73 C202.95,636.76 202.93,635.41 202.66,634.73 C202.38,634.05 202.17,634.85 202.19,636.50 ZM277.08,636.58 C277.13,637.75 277.36,637.99 277.68,637.19 C277.97,636.47 277.94,635.60 277.60,635.27 C277.27,634.94 277.04,635.53 277.08,636.58 ZM181.23,642.00 C181.23,643.92 181.44,644.71 181.69,643.75 C181.94,642.79 181.94,641.21 181.69,640.25 C181.44,639.29 181.23,640.08 181.23,642.00 ZM273.18,642.05 C265.89,644.62 261.03,647.79 260.85,650.08 C260.77,651.14 260.65,652.56 260.60,653.25 C260.46,655.00 262.18,654.64 273.00,650.66 L282.50,647.16 L286.97,651.33 L291.44,655.50 L286.47,649.87 C283.74,646.77 280.82,643.33 280.00,642.21 C278.51,640.19 278.46,640.19 273.18,642.05 ZM203.08,643.58 C203.13,644.75 203.36,644.99 203.68,644.19 C203.97,643.47 203.94,642.60 203.60,642.27 C203.27,641.94 203.04,642.53 203.08,643.58 ZM193.00,644.69 C192.18,644.98 189.14,646.31 186.25,647.64 L181.00,650.06 L181.02,654.78 C181.02,657.40 181.38,658.96 181.81,658.28 C183.10,656.24 191.08,653.89 198.75,653.28 C205.58,652.74 206.00,652.57 206.00,650.31 C206.00,646.70 197.59,643.07 193.00,644.69 ZM260.08,657.58 C260.13,658.75 260.36,658.99 260.68,658.19 C260.97,657.47 260.94,656.60 260.60,656.27 C260.27,655.94 260.04,656.53 260.08,657.58 ZM297.00,660.50 C298.87,662.42 300.62,664.00 300.89,664.00 C301.17,664.00 299.87,662.42 298.00,660.50 C296.13,658.58 294.38,657.00 294.11,657.00 C293.83,657.00 295.13,658.58 297.00,660.50 ZM258.72,662.00 C257.72,665.59 257.84,668.56 259.09,671.30 C260.31,673.97 269.58,680.00 272.46,680.00 C273.49,680.00 277.58,681.54 281.55,683.43 C294.75,689.69 302.45,691.08 312.87,689.07 C315.28,688.60 317.63,687.61 318.11,686.86 C320.66,682.83 317.21,675.20 311.28,671.73 L308.07,669.86 L305.28,672.45 C302.51,675.03 297.39,676.98 293.40,676.99 C289.79,677.00 284.76,674.85 277.68,670.26 C270.11,665.35 265.06,663.00 262.11,663.00 C261.03,663.00 259.98,662.21 259.78,661.25 C259.50,659.91 259.26,660.08 258.72,662.00 ZM180.16,664.00 C180.16,665.38 180.38,665.94 180.66,665.25 C180.94,664.56 180.94,663.44 180.66,662.75 C180.38,662.06 180.16,662.62 180.16,664.00 ZM207.13,671.61 C203.42,683.19 196.33,688.25 189.19,684.40 C185.05,682.17 182.37,678.16 181.47,672.84 C180.56,667.43 179.34,667.27 178.56,672.45 C175.79,690.90 180.52,699.22 193.87,699.40 C205.15,699.55 213.01,691.90 212.99,680.79 C212.97,673.37 211.95,667.91 210.72,668.67 C210.13,669.04 209.99,668.82 210.40,668.16 C210.79,667.53 210.75,666.39 210.30,665.62 C209.76,664.68 208.73,666.63 207.13,671.61 Z"/>
</g>
<g id="fefefe">
<path fill="#fefefe" fill-rule="evenodd" d="M0.02,214.75 C0.04,429.39 0.04,429.50 2.02,425.15 C3.10,422.76 3.70,420.32 3.34,419.74 C2.98,419.16 3.14,418.97 3.68,419.30 C4.23,419.64 5.71,418.08 6.97,415.83 C8.24,413.58 11.24,409.33 13.64,406.39 C18.03,401.00 18.98,399.28 16.85,400.60 C16.12,401.04 15.96,400.87 16.41,400.14 C16.81,399.49 17.58,399.24 18.11,399.57 C19.04,400.15 23.50,395.36 23.50,393.77 C23.50,393.35 23.95,392.94 24.50,392.88 C25.58,392.74 26.46,392.06 39.11,381.49 C43.72,377.64 48.68,373.88 50.11,373.14 C51.55,372.41 53.89,370.73 55.32,369.40 C56.75,368.08 58.41,367.00 59.02,367.00 C59.62,367.00 59.80,366.48 59.40,365.85 C58.98,365.16 59.13,364.96 59.76,365.35 C61.11,366.19 73.17,359.09 72.44,357.90 C72.14,357.42 72.67,357.32 73.61,357.68 C74.87,358.16 75.11,357.99 74.51,357.02 C74.02,356.23 74.08,355.93 74.65,356.29 C75.87,357.04 95.83,346.86 95.80,345.50 C95.79,344.95 94.90,342.77 93.82,340.65 C92.74,338.54 92.07,336.25 92.33,335.58 C92.59,334.90 96.34,333.55 100.65,332.58 C104.97,331.60 109.17,330.63 110.00,330.41 C110.84,330.19 112.29,327.31 113.32,323.82 C115.94,314.90 120.67,305.26 123.26,303.57 C124.50,302.77 128.35,302.01 131.85,301.89 C138.53,301.65 140.46,300.65 143.44,295.86 L145.09,293.22 L140.55,291.02 C138.05,289.81 135.15,287.74 134.11,286.41 C130.46,281.77 130.49,284.85 134.16,290.15 C136.78,293.93 134.55,294.39 128.43,291.32 C123.78,288.99 118.05,287.01 115.25,286.77 C114.56,286.71 114.22,286.44 114.49,286.17 C114.77,285.90 113.44,284.62 111.54,283.33 C100.56,275.87 97.41,259.88 103.63,243.15 C104.93,239.65 105.70,236.32 105.34,235.74 C104.98,235.16 105.14,234.97 105.69,235.31 C107.08,236.17 110.64,228.04 113.01,218.59 C114.11,214.24 116.56,207.08 118.46,202.68 C120.36,198.28 121.64,194.23 121.30,193.68 C120.96,193.13 121.20,193.00 121.85,193.40 C122.88,194.04 123.45,192.85 123.12,190.75 C123.05,190.34 123.38,190.00 123.85,190.00 C124.32,190.00 126.15,186.86 127.92,183.02 C130.78,176.82 131.36,173.98 133.06,157.77 C135.44,135.07 138.98,118.59 143.75,108.00 C144.62,106.08 145.33,103.94 145.33,103.25 C145.33,102.56 145.61,102.00 145.94,102.00 C146.27,102.00 147.42,100.31 148.49,98.25 C152.80,89.97 161.97,79.53 168.50,75.49 C170.15,74.47 172.40,72.89 173.50,71.99 C174.60,71.09 177.50,69.72 179.93,68.95 C183.83,67.73 184.08,67.49 181.97,66.99 C178.45,66.16 175.84,60.88 175.24,53.35 C174.84,48.39 175.05,46.58 176.10,45.91 C178.29,44.53 183.83,44.86 192.25,46.87 L200.00,48.72 L200.12,45.61 C200.18,43.90 200.21,42.23 200.17,41.90 C200.13,41.56 204.84,41.34 210.63,41.40 C224.08,41.53 224.93,42.42 222.45,53.75 C221.84,56.54 221.76,56.54 230.26,53.47 C243.53,48.69 251.44,49.07 261.20,54.97 C266.50,58.18 267.98,59.73 270.83,65.13 C273.62,70.41 274.29,72.91 274.73,79.74 C275.05,84.91 274.82,89.03 274.09,90.78 C273.15,93.06 273.29,94.77 274.87,100.04 C277.31,108.18 277.96,112.06 278.13,119.20 C278.24,123.88 278.70,125.31 280.74,127.20 C282.10,128.46 284.58,131.52 286.25,134.00 C287.91,136.48 289.98,139.06 290.83,139.75 C291.68,140.44 291.88,141.00 291.26,141.00 C290.50,141.00 290.41,141.93 290.96,143.87 C291.77,146.68 291.60,155.50 290.67,159.50 C290.22,161.44 287.31,167.21 281.59,177.50 C278.89,182.36 276.14,185.45 273.85,186.22 C273.06,186.48 273.14,187.30 274.11,188.98 C276.31,192.77 281.94,198.16 283.00,197.50 C283.54,197.17 283.73,197.55 283.42,198.34 C283.12,199.14 283.74,200.40 284.80,201.15 C285.86,201.89 286.72,202.73 286.70,203.00 C286.63,204.10 290.46,211.55 291.45,212.23 C292.03,212.64 292.17,212.98 291.77,212.98 C291.36,212.99 292.02,214.89 293.22,217.20 C297.31,225.04 295.60,238.54 289.73,244.79 L287.55,247.10 L289.92,253.80 C292.27,260.44 297.68,272.04 298.88,273.00 C299.22,273.27 299.64,274.14 299.81,274.93 C300.24,276.90 304.11,282.22 304.69,281.64 C304.95,281.38 306.06,282.06 307.15,283.15 C308.74,284.74 309.42,284.89 310.59,283.93 C311.77,282.95 311.94,283.00 311.47,284.21 C310.89,285.73 315.25,289.33 317.68,289.33 C318.36,289.33 318.71,289.66 318.46,290.06 C317.83,291.08 320.95,292.15 322.24,291.35 C322.83,290.99 323.02,291.16 322.66,291.73 C322.31,292.31 323.59,293.98 325.51,295.44 C327.43,296.90 329.00,297.85 329.00,297.55 C329.00,297.25 329.81,297.79 330.80,298.75 C333.66,301.53 338.42,304.92 339.39,304.87 C339.88,304.85 340.65,305.43 341.10,306.16 C341.56,306.90 342.74,307.52 343.72,307.55 C344.70,307.57 345.39,308.12 345.26,308.76 C345.13,309.40 346.67,311.17 348.68,312.71 C351.88,315.15 353.47,315.57 361.42,316.04 C369.99,316.55 370.79,316.42 375.58,313.79 C381.33,310.63 384.00,310.26 384.00,312.61 C384.00,313.90 384.68,314.10 387.42,313.58 C391.54,312.81 393.22,314.60 390.40,316.76 C388.66,318.10 388.81,318.17 392.17,317.58 C394.34,317.20 396.11,317.36 396.49,317.98 C397.53,319.66 396.01,323.00 394.18,323.05 C393.20,323.07 393.69,323.60 395.38,324.32 C397.95,325.42 398.08,325.69 396.64,326.89 C395.75,327.62 395.28,328.64 395.59,329.14 C395.90,329.64 395.78,329.97 395.32,329.86 C394.87,329.76 393.15,330.24 391.50,330.92 C389.85,331.61 385.16,332.81 381.08,333.60 C377.01,334.39 373.14,335.47 372.49,336.01 C371.78,336.59 371.35,339.43 371.43,342.95 C371.50,346.22 371.39,348.72 371.18,348.51 C370.97,348.30 369.72,348.54 368.41,349.04 C367.09,349.53 366.11,349.62 366.22,349.22 C366.70,347.52 363.63,343.85 359.24,340.85 C356.63,339.07 353.91,336.80 353.19,335.81 C352.47,334.81 351.27,334.00 350.51,334.00 C348.36,334.00 325.45,326.27 321.24,324.12 C319.16,323.06 316.57,322.04 315.48,321.85 C314.39,321.66 313.27,321.22 313.00,320.88 C312.73,320.53 309.12,318.57 305.00,316.52 C290.83,309.45 286.15,306.13 282.64,300.64 C280.81,297.80 278.54,294.69 277.59,293.73 C276.64,292.78 276.12,292.00 276.45,292.00 C276.78,292.00 276.31,290.88 275.41,289.51 C273.75,286.97 272.00,286.98 272.00,289.53 C272.00,291.32 267.62,300.86 265.59,303.50 C264.74,304.60 262.24,307.84 260.04,310.69 C256.08,315.84 252.77,318.00 246.00,319.86 C244.07,320.39 243.08,320.86 243.79,320.91 C244.76,320.98 244.81,321.49 244.00,323.00 C243.10,324.67 243.24,325.00 244.82,325.00 C248.05,325.00 270.75,337.82 271.83,340.25 C272.02,340.66 272.56,341.00 273.04,341.00 C273.82,341.00 286.79,349.64 288.00,350.96 C289.76,352.89 296.57,357.29 301.59,359.74 C310.26,363.97 336.06,380.25 347.00,388.40 C359.28,397.55 369.22,407.02 374.20,414.33 C377.48,419.13 378.04,420.62 377.38,422.83 C376.93,424.30 376.53,428.43 376.48,432.00 C376.39,438.42 374.07,444.88 370.32,449.15 C369.04,450.61 369.13,450.98 371.10,452.36 C372.32,453.21 373.77,453.64 374.32,453.30 C374.86,452.97 375.03,453.14 374.69,453.69 C374.35,454.24 375.46,456.00 377.16,457.60 C378.86,459.19 382.52,463.20 385.30,466.50 C388.08,469.80 390.76,472.38 391.25,472.23 C391.74,472.07 391.87,472.40 391.53,472.95 C391.20,473.49 391.61,475.28 392.46,476.92 C394.50,480.87 394.40,482.62 391.94,486.09 C390.80,487.68 389.61,490.67 389.28,492.74 C388.48,497.77 386.14,503.11 381.14,511.27 C376.70,518.52 376.30,519.52 378.25,518.40 C378.98,517.98 379.15,518.06 378.67,518.59 C378.21,519.09 377.53,519.51 377.17,519.51 C375.68,519.55 367.06,529.29 367.66,530.26 C368.02,530.84 367.87,531.04 367.33,530.70 C366.79,530.37 364.91,531.62 363.15,533.49 C353.60,543.62 328.84,555.93 295.73,567.02 C286.51,570.10 279.31,573.01 279.73,573.48 C280.15,573.94 279.92,573.99 279.21,573.58 C278.50,573.17 275.69,573.41 272.96,574.11 C267.46,575.52 267.11,576.42 268.97,584.50 C270.14,589.60 270.27,590.32 274.57,615.99 C277.89,635.79 278.45,637.92 281.73,643.24 C285.52,649.38 292.63,656.35 294.14,655.41 C294.64,655.10 294.93,655.27 294.77,655.79 C294.27,657.49 308.37,670.11 310.25,669.63 C311.21,669.39 311.76,669.57 311.47,670.05 C311.18,670.52 312.10,671.67 313.52,672.60 C318.49,675.86 320.96,684.47 317.82,687.61 C317.00,688.43 313.37,689.52 309.75,690.04 C302.06,691.13 291.86,688.99 282.85,684.41 C277.99,681.95 269.34,678.99 266.29,678.76 C265.63,678.71 265.28,678.36 265.51,677.98 C265.75,677.60 264.85,676.80 263.52,676.19 C259.26,674.25 257.66,670.64 258.44,664.73 C258.83,661.86 259.24,657.46 259.37,654.97 C259.50,652.48 259.97,649.86 260.42,649.14 C260.87,648.40 260.74,647.34 260.11,646.71 C259.50,646.10 259.00,645.03 259.00,644.34 C259.00,643.65 256.15,637.10 252.66,629.79 C249.18,622.48 246.14,616.05 245.91,615.50 C245.69,614.95 242.00,607.67 237.72,599.33 L229.95,584.15 L226.98,585.00 C225.36,585.47 218.73,586.40 212.26,587.07 C205.79,587.73 200.23,588.55 199.91,588.89 C199.59,589.22 199.67,593.77 200.10,599.00 C200.53,604.23 201.16,612.77 201.51,618.00 C202.49,632.70 203.87,644.29 204.73,644.93 C205.15,645.24 205.61,646.40 205.73,647.50 C206.56,654.56 209.13,663.28 211.46,666.96 C211.97,667.77 212.51,670.02 212.67,671.96 C212.84,673.91 213.19,677.09 213.46,679.04 C214.54,686.78 210.37,694.12 202.75,697.90 L198.50,700.00 L354.75,700.00 L511.00,700.00 L510.91,375.75 C510.85,116.81 510.58,52.51 509.60,56.50 C508.92,59.25 506.41,65.77 504.02,71.00 C499.65,80.55 497.83,89.75 499.52,93.72 C499.94,94.70 500.40,96.17 500.56,97.00 C500.71,97.83 501.57,100.50 502.48,102.94 C504.78,109.16 504.76,116.18 502.42,120.54 C499.66,125.70 488.96,130.87 479.39,131.67 C470.99,132.37 467.07,131.32 457.91,125.88 C448.71,120.42 442.11,119.15 434.82,121.44 L429.20,123.21 L429.07,130.61 C428.89,140.25 428.81,141.00 427.90,141.00 C427.48,141.00 426.84,141.93 426.48,143.06 C425.72,145.47 419.86,148.54 417.65,147.70 C415.15,146.74 413.04,142.68 412.56,137.90 C410.61,118.66 403.27,100.11 393.06,88.62 C387.83,82.74 386.90,81.94 385.96,82.52 C385.43,82.85 385.00,82.62 385.00,82.01 C385.00,80.05 378.26,78.00 371.85,78.00 C363.80,78.00 357.82,80.76 355.56,85.52 C354.08,88.64 354.07,89.23 355.47,91.95 C358.12,97.07 364.15,98.70 367.35,95.17 C369.80,92.46 369.38,91.84 365.60,92.55 C362.72,93.09 362.09,92.86 361.53,91.09 C360.71,88.52 361.72,85.04 363.32,84.88 C363.97,84.82 366.07,84.71 368.00,84.63 L371.50,84.50 L371.80,90.14 C372.08,95.24 371.85,95.97 369.42,97.89 C366.30,100.33 361.13,100.64 357.20,98.60 C346.48,93.06 348.61,81.13 361.37,75.15 C367.47,72.30 378.17,72.32 384.92,75.20 C388.63,76.77 389.57,76.86 390.69,75.74 C392.23,74.20 390.90,68.86 388.20,65.75 C387.37,64.79 387.05,64.00 387.50,64.00 C387.95,64.00 387.51,63.11 386.52,62.02 C385.54,60.94 384.27,60.33 383.71,60.68 C383.15,61.03 382.97,60.86 383.31,60.31 C383.65,59.76 382.71,58.14 381.21,56.71 C375.27,51.01 365.46,49.28 360.63,53.07 C358.51,54.74 358.00,55.99 358.00,59.48 C358.00,63.12 358.51,64.25 361.14,66.46 C364.33,69.15 368.01,69.52 368.76,67.23 C369.00,66.51 367.88,65.51 366.20,64.92 C363.80,64.08 363.33,63.45 363.78,61.69 C364.98,57.04 369.51,55.70 372.58,59.09 C374.83,61.58 375.00,63.55 373.26,67.22 C369.74,74.69 358.87,73.14 355.49,64.68 C353.62,60.00 353.77,52.30 355.75,51.54 C356.53,51.24 356.81,50.47 356.40,49.76 C356.01,49.07 356.01,48.80 356.42,49.16 C356.82,49.52 359.20,48.91 361.71,47.80 C367.41,45.28 372.19,45.86 380.50,50.08 C388.03,53.91 395.03,62.61 396.93,70.50 C397.41,72.48 399.28,74.00 401.26,74.00 C403.18,74.00 403.24,73.58 402.58,65.45 C402.20,60.74 400.58,52.30 398.98,46.70 C393.40,27.11 393.62,19.05 399.98,11.02 C401.61,8.96 402.62,6.92 402.22,6.48 C401.83,6.04 402.06,6.00 402.75,6.40 C403.46,6.81 404.00,6.59 404.00,5.89 C404.00,5.22 404.30,4.96 404.66,5.32 C405.02,5.69 405.89,5.50 406.60,4.92 C407.31,4.33 410.05,3.00 412.69,1.97 C417.42,0.12 414.06,0.09 208.75,0.05 L0.00,0.00 L0.02,214.75 ZM433.01,0.93 C434.39,1.35 437.09,2.53 439.01,3.55 C440.93,4.58 442.87,5.31 443.32,5.18 C443.78,5.05 443.89,5.37 443.57,5.89 C443.25,6.41 443.33,6.98 443.75,7.16 C444.17,7.35 445.89,9.30 447.57,11.50 C451.09,16.10 453.00,21.90 453.00,27.95 L453.00,32.18 L456.08,29.59 C457.77,28.17 459.60,27.00 460.14,27.00 C460.68,27.00 460.83,26.54 460.48,25.98 C460.14,25.41 460.22,25.06 460.68,25.19 C461.13,25.33 464.64,23.88 468.48,21.97 C474.89,18.78 476.19,18.50 484.48,18.50 C491.82,18.50 494.27,18.91 497.65,20.68 C499.93,21.88 502.14,22.56 502.56,22.18 C502.98,21.81 503.03,22.01 502.67,22.64 C501.90,23.99 504.36,26.31 505.43,25.24 C505.83,24.83 506.04,24.95 505.88,25.50 C505.73,26.05 506.74,28.70 508.14,31.40 L510.68,36.29 L510.89,18.15 L511.10,0.00 L470.80,0.09 C448.63,0.13 431.63,0.52 433.01,0.93 ZM417.86,4.31 C413.72,7.46 413.32,20.41 416.91,35.17 C419.41,45.44 420.50,53.39 420.50,61.25 C420.50,64.41 420.77,67.00 421.09,67.00 C421.92,67.00 435.95,52.18 439.00,48.09 C441.50,44.73 442.82,43.12 447.67,37.51 C450.05,34.74 450.21,33.99 449.68,27.76 C449.14,21.33 446.49,14.58 444.89,15.57 C444.47,15.82 443.81,15.51 443.41,14.86 C442.96,14.13 443.12,13.96 443.85,14.40 C446.21,15.87 444.89,13.28 441.67,10.16 C435.64,4.33 422.19,1.02 417.86,4.31 ZM489.79,25.54 C489.49,25.84 488.06,26.30 486.62,26.56 C481.30,27.53 472.54,33.44 473.68,35.29 C474.06,35.91 473.81,36.00 473.04,35.53 C471.72,34.71 461.05,45.44 461.02,47.63 C461.01,48.25 460.35,49.30 459.55,49.96 C458.36,50.94 453.09,59.32 451.01,63.52 C449.52,66.52 443.30,74.67 440.60,77.14 C438.90,78.70 434.57,81.89 431.00,84.22 C427.43,86.55 424.22,88.84 423.89,89.31 C423.55,89.79 422.97,90.09 422.60,89.98 C422.22,89.88 420.59,90.34 418.98,91.01 C416.37,92.09 416.18,92.46 417.21,94.36 C417.85,95.54 418.46,97.17 418.55,98.00 C418.86,100.67 424.23,112.00 425.19,112.00 C425.70,112.00 425.91,112.34 425.65,112.76 C425.39,113.18 425.81,115.03 426.59,116.88 C427.84,119.85 428.20,120.08 429.66,118.87 C430.80,117.92 434.25,117.50 440.90,117.50 C450.26,117.50 450.67,117.60 457.50,121.50 C467.67,127.30 469.63,128.00 475.71,128.00 C485.52,128.00 494.74,124.16 499.72,118.01 C501.64,115.63 501.21,109.97 498.52,102.05 C494.28,89.59 494.27,86.78 498.47,75.96 C506.28,55.84 507.00,53.20 507.00,44.83 C507.00,38.10 506.61,36.18 504.46,32.52 C502.98,30.00 500.52,27.53 498.56,26.60 C495.23,25.02 490.84,24.49 489.79,25.54 ZM179.47,58.72 C180.72,63.72 181.85,64.30 188.98,63.69 C198.46,62.87 206.56,60.96 204.91,59.94 C203.45,59.04 194.16,57.48 184.64,56.54 L178.77,55.96 L179.47,58.72 ZM369.50,86.00 C369.84,86.55 370.32,87.00 370.56,87.00 C370.80,87.00 371.00,86.55 371.00,86.00 C371.00,85.45 370.52,85.00 369.94,85.00 C369.36,85.00 369.16,85.45 369.50,86.00 ZM174.49,302.56 C170.62,307.37 170.47,307.88 172.67,308.62 C177.63,310.31 188.00,315.40 188.00,316.15 C188.00,316.62 188.42,317.00 188.92,317.00 C189.43,317.00 189.12,315.55 188.24,313.77 C187.35,312.00 186.43,308.17 186.19,305.27 C185.91,301.95 185.29,300.00 184.50,300.00 C183.81,300.00 181.95,299.74 180.37,299.42 C177.91,298.93 177.03,299.40 174.49,302.56 ZM0.25,452.00 C0.29,468.38 0.30,468.46 1.76,463.00 C3.59,456.17 3.59,454.57 1.72,444.00 L0.22,435.50 L0.25,452.00 ZM0.09,590.75 L0.00,700.00 L95.25,699.91 C150.34,699.86 189.29,699.46 187.62,698.97 C186.03,698.49 183.75,697.18 182.55,696.04 C181.34,694.91 179.98,694.32 179.52,694.74 C179.06,695.16 179.02,694.92 179.43,694.21 C179.84,693.49 179.57,692.19 178.84,691.30 C177.42,689.59 176.82,667.78 178.22,668.64 C179.27,669.28 179.98,665.58 180.55,656.50 C181.55,640.63 181.62,641.00 171.98,616.00 C171.02,613.52 168.27,606.22 165.87,599.77 C162.29,590.16 161.05,587.88 159.00,587.13 C157.62,586.62 151.27,585.71 144.87,585.10 C130.31,583.72 118.35,581.68 105.50,578.40 C94.49,575.58 79.04,570.53 74.75,568.35 C73.24,567.58 72.00,567.24 72.00,567.60 C72.00,567.95 71.34,567.70 70.54,567.04 C69.74,566.37 68.55,566.16 67.89,566.57 C67.20,567.00 66.95,566.89 67.31,566.31 C67.65,565.75 66.71,564.68 65.22,563.92 C60.92,561.72 56.79,558.81 53.00,555.31 C51.08,553.54 49.05,552.06 48.50,552.04 C47.95,552.02 47.48,551.66 47.45,551.25 C47.43,550.84 45.98,548.30 44.23,545.61 C39.80,538.75 37.75,531.99 38.16,525.49 L38.50,520.04 L33.75,517.46 C31.14,516.04 28.54,515.16 27.98,515.51 C27.41,515.86 27.07,515.55 27.23,514.82 C27.38,514.07 26.71,513.56 25.68,513.65 C24.68,513.73 24.12,513.55 24.43,513.24 C24.74,512.93 22.63,511.11 19.75,509.20 C14.48,505.72 6.00,497.43 6.00,495.77 C6.00,495.28 5.44,495.21 4.75,495.60 C4.06,496.00 3.82,495.96 4.21,495.53 C4.61,495.09 4.42,493.79 3.80,492.62 C3.18,491.46 2.11,488.48 1.42,486.01 C0.41,482.33 0.16,501.73 0.09,590.75 Z"/>
</g>
<g id="65c2e8">
<path fill="#65c2e8" fill-rule="evenodd" d="M258.46,219.83 C255.99,224.46 252.95,225.04 249.48,221.57 C246.28,218.37 246.00,218.37 246.00,221.61 C246.00,225.76 242.23,231.38 237.54,234.21 C234.37,236.12 232.92,236.52 232.11,235.71 C231.30,234.90 231.00,236.38 231.00,241.24 C231.00,244.89 231.41,248.14 231.91,248.45 C232.42,248.76 235.48,249.29 238.71,249.63 C243.60,250.14 245.64,249.82 250.76,247.75 C261.53,243.40 266.93,237.15 268.51,227.19 C269.26,222.46 267.87,220.02 262.97,217.48 C260.56,216.24 260.33,216.36 258.46,219.83 ZM277.76,234.53 C276.64,236.73 276.13,241.99 275.81,254.69 C275.57,264.15 275.68,271.70 276.05,271.47 C276.42,271.24 278.41,268.60 280.48,265.60 C284.95,259.10 288.06,250.37 286.92,247.50 C286.48,246.40 285.87,243.90 285.56,241.95 C285.24,240.00 283.70,236.87 282.13,234.99 L279.28,231.57 L277.76,234.53 ZM162.07,237.39 C159.18,242.06 156.09,251.34 155.37,257.54 C154.90,261.51 155.23,263.73 156.83,267.34 C158.86,271.94 158.95,272.00 163.63,272.00 C170.47,272.00 176.59,275.28 180.11,280.84 C183.78,286.61 183.75,289.63 180.01,294.17 C176.73,298.15 177.27,299.00 183.08,299.00 C185.65,299.00 186.00,299.35 186.00,301.98 C186.00,303.62 186.96,307.88 188.13,311.44 C190.06,317.31 190.60,318.05 193.88,319.14 C203.24,322.27 213.05,319.39 216.50,312.50 C218.27,308.96 218.50,306.50 218.50,291.00 L218.50,273.50 L215.50,268.03 C213.40,264.21 209.37,259.82 202.11,253.44 C196.40,248.42 191.82,243.92 191.94,243.45 C192.25,242.15 189.03,241.15 184.30,241.07 C177.41,240.96 170.13,238.98 167.06,236.40 L164.18,233.97 L162.07,237.39 ZM228.75,320.73 C231.09,320.94 234.91,320.94 237.25,320.73 C239.59,320.52 237.68,320.35 233.00,320.35 C228.32,320.35 226.41,320.52 228.75,320.73 ZM236.00,326.00 C234.62,326.44 229.11,326.85 223.75,326.90 L214.00,327.00 L214.00,330.06 C214.00,331.84 214.42,332.86 215.00,332.50 C215.55,332.16 216.00,330.98 216.00,329.88 C216.00,328.15 216.57,327.93 220.25,328.19 C224.31,328.49 224.62,328.74 227.19,334.00 C230.23,340.20 230.99,338.77 228.07,332.34 L226.18,328.19 L230.84,327.79 C235.40,327.40 235.65,327.54 242.39,333.95 C246.18,337.55 248.80,339.60 248.22,338.50 C247.63,337.40 245.09,334.49 242.58,332.04 C240.06,329.59 238.00,327.26 238.00,326.86 C238.00,326.46 239.01,325.94 240.25,325.71 C242.11,325.35 242.16,325.27 240.50,325.24 C239.40,325.22 237.38,325.56 236.00,326.00 ZM148.68,342.02 C138.92,345.18 138.30,345.56 133.77,351.29 C130.83,355.01 130.78,355.19 133.06,353.98 C134.40,353.27 137.30,351.55 139.50,350.16 C141.70,348.78 147.10,345.70 151.50,343.34 C160.83,338.32 160.53,338.18 148.68,342.02 ZM83.96,353.29 C77.61,356.70 69.55,361.26 66.06,363.41 C60.49,366.84 59.92,367.47 61.39,368.54 C64.67,370.94 85.50,371.49 93.16,369.38 C94.07,369.13 96.35,366.35 98.22,363.20 L101.63,357.48 L99.33,352.24 C98.07,349.36 96.69,347.02 96.27,347.04 C95.85,347.06 90.30,349.87 83.96,353.29 ZM49.41,374.42 C27.80,389.89 13.36,405.05 4.55,421.50 C0.85,428.42 0.81,428.60 1.41,437.00 C1.74,441.68 2.59,447.71 3.30,450.41 C4.44,454.76 4.37,455.95 2.67,460.91 C0.19,468.15 0.11,480.60 2.51,487.50 C6.18,498.05 13.10,504.93 29.72,514.57 L38.47,519.65 L38.61,526.66 C39.02,546.57 55.45,561.79 88.50,572.87 C115.61,581.96 135.87,584.94 189.00,587.66 C210.27,588.75 243.08,582.75 283.50,570.38 C323.00,558.28 350.52,545.22 362.71,532.79 C373.35,521.93 375.01,520.03 378.26,514.93 C383.78,506.30 387.90,497.51 388.63,492.83 C389.00,490.45 390.13,487.43 391.15,486.12 C395.33,480.73 391.94,473.88 378.33,460.20 L369.08,450.90 L365.29,455.20 C355.54,466.25 345.69,473.07 325.93,482.43 C309.19,490.35 282.27,498.02 258.29,501.69 C242.61,504.09 207.18,504.07 192.50,501.66 C176.41,499.02 162.03,495.66 149.00,491.50 C115.54,480.83 97.23,470.51 80.87,453.11 C71.59,443.24 67.56,436.42 60.31,418.29 L57.65,411.65 L59.99,410.09 C61.28,409.24 67.20,404.64 73.15,399.88 L83.98,391.22 L80.24,390.77 C77.48,390.44 75.02,391.06 70.88,393.16 C65.38,395.94 61.99,396.66 60.68,395.34 C60.31,394.98 60.46,394.16 60.99,393.51 C61.72,392.64 60.80,392.33 57.45,392.33 C50.16,392.33 49.82,390.56 56.47,387.31 L62.22,384.50 L56.36,384.00 C51.36,383.57 50.50,383.21 50.50,381.52 C50.50,379.89 51.72,379.27 57.50,377.97 L64.50,376.39 L61.20,374.64 C59.38,373.68 57.58,372.10 57.20,371.12 C56.59,369.57 55.61,369.98 49.41,374.42 Z"/>
</g>
</svg>
